<svg xmlns="http://www.w3.org/2000/svg" width="64" height="64" viewBox="0 0 64 64" fill="none" stroke="currentColor"><path d="M55.88 16.21c1.58 21.44-12.2 31.57-24.56 32.65-11.48 1-22.3-6-23.25-16.9-.78-9 4.76-12.77 9.11-13.15s8.23 2.69 8.56 6.43-1.93 5.23-3.49 5.36a2.61 2.61 0 0 1-2.92-2.24c-.12-1.39.41-1.57.28-3-.23-2.61-2.51-2.92-3.76-2.81-1.5.13-4.24 1.89-3.86 6.28s4.63 7.92 10.19 7.44c6-.53 10.18-5.2 10.5-11.76a2.3 2.3 0 0 1 .21-1 2.5 2.5 0 0 1 .23-.39 4.92 4.92 0 0 1 .5-.64c.15-.17.34-.36.55-.56 2.62-2.47 12.06-8.31 21-6.46a.89.89 0 0 1 .71.81"/></svg>