<svg xmlns="http://www.w3.org/2000/svg" width="64" height="64" viewBox="0 0 64 64"><polygon points="54 26 56 28 52 32 56 44 54 54 42 50 36 54 28 54 22 50 10 54 8 44 12 32 8 28 10 26 8 16 10 8 24 16 40 16 54 8 56 16 54 26" fill="none" stroke="#000" stroke-miterlimit="10" stroke-width="2" fill-rule="evenodd"/><polyline points="40 16 38 24 36 40 28 40 26 24 24 16" fill="none" stroke="#000" stroke-miterlimit="10" stroke-width="2"/><line x1="28" y1="40" x2="22" y2="50" fill="none" stroke="#000" stroke-miterlimit="10" stroke-width="2"/><line x1="36" y1="40" x2="42" y2="50" fill="none" stroke="#000" stroke-miterlimit="10" stroke-width="2"/><line x1="32" y1="48" x2="32" y2="54" fill="none" stroke="#000" stroke-miterlimit="10" stroke-width="2"/><line x1="12" y1="32" x2="26" y2="24" fill="none" stroke="#000" stroke-miterlimit="10" stroke-width="2"/><line x1="38" y1="24" x2="52" y2="32" fill="none" stroke="#000" stroke-miterlimit="10" stroke-width="2"/><line x1="28" y1="40" x2="18" y2="36" fill="none" stroke="#000" stroke-miterlimit="10" stroke-width="2"/><line x1="36" y1="40" x2="46" y2="36" fill="none" stroke="#000" stroke-miterlimit="10" stroke-width="2"/></svg>