<svg xmlns="http://www.w3.org/2000/svg" width="64" height="64" viewBox="0 0 64 64"><path d="M34.55,12.88,32,10.33a3.6,3.6,0,0,0-5.1,0L9.06,28.18a3.59,3.59,0,0,0,0,5.09h0a3.59,3.59,0,0,0,5.09,0l20.4-20.39a3.6,3.6,0,0,1,5.1,0l5.1,5.1" fill="none" stroke="#000" stroke-miterlimit="10" stroke-width="2"/><path d="M9.06,33.27l20.39,20.4a3.6,3.6,0,0,0,5.1,0l20.39-20.4a3.59,3.59,0,0,0,0-5.09l-5.09-5.1" fill="none" stroke="#000" stroke-miterlimit="10" stroke-width="2"/><path d="M36,21H50.46a0,0,0,0,1,0,0V35.39a0,0,0,0,1,0,0H36a7.21,7.21,0,0,1-7.21-7.21v0A7.21,7.21,0,0,1,36,21Z" transform="translate(-8.31 36.29) rotate(-45)" fill="none" stroke="#000" stroke-miterlimit="10" stroke-width="2"/></svg>