<svg xmlns="http://www.w3.org/2000/svg" width="64" height="64" viewBox="0 0 64 64" fill="none" stroke="currentColor"><path d="M46.78 45.69s1 2.24-.21 6.35c9.88-7.15 5.58-19.61 5.58-19.61A23.9 23.9 0 0 1 56.42 36C58 19.71 42.31 14.87 42.31 14.87a40.66 40.66 0 0 1 6.79-.4c-7.05-5.9-16.91-4.94-21.79-1.94l1.36-3.8a9.62 9.62 0 0 0-8.07 6.89c-.55-1.39-1.45-4.06-1.45-4.06a8.12 8.12 0 0 0-1.63 7.88C13.84 18.09 8 16 8 16s8.93 7.09 10.75 8.28c-.4 1.42-.4 2.1 0 2.77a4.06 4.06 0 0 1 .46 2.59 48 48 0 0 1-.74 5.7c-.4 1.48-1.46 3.33-1.9 5-.36 1.39.26 3.68 2 4.32a9.07 9.07 0 0 0 6.68.21A11.75 11.75 0 0 0 30 41.21a3.72 3.72 0 0 0 .75-2.82 3.85 3.85 0 0 1 1-2.62L33.92 33C44 40.94 35.25 51 23.3 52.5a20.64 20.64 0 0 0 23.48-6.81z"/><path d="M29 21.38a5.36 5.36 0 0 1-4 5.13l-1-1.76"/></svg>