<svg xmlns="http://www.w3.org/2000/svg" width="64" height="64" viewBox="0 0 64 64" fill="none" stroke-width="1px" stroke="#000"><defs><clipPath id="a"><path d="M15.62 42a15.79 15.79 0 0 1-1.85-7 14.89 14.89 0 0 1 14.16-15.06h.57l-1.87-1.88s7.55-1.27 17.25 4.62a2.33 2.33 0 0 1 0 1.18s4.56 2 4.95 5.83-2 6.05-4 6.36a1.67 1.67 0 0 0-.55-2.43 2.06 2.06 0 0 0-1.11-.25c-3 0-3.33 3.42-3.33 3.42a2.27 2.27 0 0 0 0 .52s-.55 5 8.33 4.92"/></clipPath><clipPath id="b"><path d="M34.78 25.65A5.21 5.21 0 0 0 38 27.54"/></clipPath></defs><path d="M56 24c-4 24-24 30-24 30S12 48 8 24c8-8 24-14 24-14s16 6 24 14z"/><g clip-path="url(#a)"><path d="M5.24 5.78h53.64v53.64H5.24z"/></g><path d="M15.62 42a15.79 15.79 0 0 1-1.85-7 14.89 14.89 0 0 1 14.16-15.06h.57l-1.87-1.88s7.55-1.27 17.25 4.62a2.33 2.33 0 0 1 0 1.18s4.56 2 4.95 5.83-2 6.05-4 6.36a1.67 1.67 0 0 0-.55-2.43 2.06 2.06 0 0 0-1.11-.25c-3 0-3.33 3.42-3.33 3.42a2.27 2.27 0 0 0 0 .52s-.55 5 8.33 4.92"/><g clip-path="url(#b)"><path d="M6.75 10.12h48.49v48.49H6.75z"/></g><path d="M34.78 25.65A5.21 5.21 0 0 0 38 27.54"/></svg>