<svg xmlns="http://www.w3.org/2000/svg" width="64" height="64" viewBox="0 0 64 64" fill="none" stroke-width="1px" stroke="#000"><defs><clipPath id="a"><path d="M48.64-63.83H48c-7 0-8-1.67-8-8a8 8 0 0 0-8-8 8 8 0 0 0-8 8c0 6.36-1 7.86-8 7.86h-.67A7.85 7.85 0 0 0 8-56.14a8 8 0 0 0 8 8 7.88 7.88 0 0 0 7.86-7.36v-.5c0-5.86 1.84-8 8-8s8 2.17 8 7.86a8 8 0 0 0 8 8 7.93 7.93 0 0 0 8-8 8.1 8.1 0 0 0-7.22-7.69z"/></clipPath></defs><g clip-path="url(#a)"><path d="M-7.89-112.13h111.55V-.58H-7.89z"/></g><path d="M48.64-63.83H48c-7 0-8-1.67-8-8a8 8 0 0 0-8-8 8 8 0 0 0-8 8c0 6.36-1 7.86-8 7.86h-.67A7.85 7.85 0 0 0 8-56.14a8 8 0 0 0 8 8 7.88 7.88 0 0 0 7.86-7.36v-.5c0-5.86 1.84-8 8-8s8 2.17 8 7.86a8 8 0 0 0 8 8 7.93 7.93 0 0 0 8-8 8.1 8.1 0 0 0-7.22-7.69zM41.6 39.2L56 24.8l-3.6-13.2L41.6 8M39.2 22.4L24.8 8l-13.2 3.6L8 22.4M22.4 24.8L8 39.2l3.6 13.2L22.4 56M24.8 41.6L39.2 56l13.2-3.6L56 41.6"/></svg>