<svg xmlns="http://www.w3.org/2000/svg" width="64" height="64" viewBox="0 0 64 64" fill="none" stroke="currentColor"><polygon points="50.46 27.38 50.46 17.23 45.85 17.23 45.85 13.54 36.62 13.54 36.62 8 27.38 8 27.38 13.54 18.15 13.54 18.15 17.23 13.54 17.23 13.54 46.77 18.15 46.77 18.15 50.46 27.38 50.46 27.38 56 36.62 56 36.62 50.46 45.85 50.46 45.85 46.77 50.46 46.77 50.46 36.62 41.23 36.62 41.23 41.23 36.62 41.23 36.62 46.77 27.38 46.77 27.38 41.23 22.77 41.23 22.77 22.77 27.38 22.77 27.38 17.23 36.62 17.23 36.62 22.77 41.23 22.77 41.23 27.38 50.46 27.38"/></svg>