<svg xmlns="http://www.w3.org/2000/svg" width="64" height="64" viewBox="0 0 64 64" fill="none" stroke-width="1px" stroke="#000"><defs><clipPath id="a"><path d="M23.82 41h8.07a11.06 11.06 0 0 0 5.33-.93c2.84-1.31 4.54-4.11 5.22-7.78 1-5.45-.24-9.32-7.35-9.32"/></clipPath><clipPath id="b"><path clip-path="url(#a)" d="M35.09 22.98h-8.1"/></clipPath><clipPath id="c"><path d="M11.35 11.3h41.4v41.4h-41.4z"/></clipPath></defs><g clip-path="url(#b)"><g clip-path="url(#c)"><path d="M22.21 21.36h22.16v21.27H22.21z"/></g><path d="M11.35 11.3h41.4v41.4h-41.4z"/></g><path d="M23.82 41h8.07a11.06 11.06 0 0 0 5.33-.93c2.84-1.31 4.54-4.11 5.22-7.78 1-5.45-.24-9.32-7.35-9.32M35.09 22.98h-8.1"/><path d="M11.35 11.3h41.4v41.4h-41.4z"/><circle cx="32" cy="32" r="24"/><path d="M31 32H20"/></svg>