<svg xmlns="http://www.w3.org/2000/svg" width="64" height="64" viewBox="0 0 64 64" fill="none" stroke-width="1px" stroke="#000"><defs><clipPath id="a"><path d="M26.28 28L20 43.19c13.22-.26 19.88-2.19 23.83-9.26 0 0 5.31-8.23-.93-11.14a13.77 13.77 0 0 0-5.19-1.14H22.15"/></clipPath></defs><circle cx="32" cy="32" r="24"/><g clip-path="url(#a)"><path d="M10 9.12h45.79v45.79H10z"/></g><path d="M26.28 28L20 43.19c13.22-.26 19.88-2.19 23.83-9.26 0 0 5.31-8.23-.93-11.14a13.77 13.77 0 0 0-5.19-1.14H22.15M24.44 43.02l-1.67 4.31M34.56 16.99l-1.81 4.66M29.77 42.49l-1.89 4.84M39.68 16.99l-1.81 4.66"/></svg>