<svg xmlns="http://www.w3.org/2000/svg" width="64" height="64" viewBox="0 0 64 64" fill="none" stroke-width="1px" stroke="#000"><path d="M8 52c0-12 14.11-16 14.11-16S16 32 16 28h6.11S12 24 12 20h10.11S8 16 8 12h20a49.94 49.94 0 0 1 12.4 1.57l4.22 1.06A10 10 0 0 0 54.11 12h0a17.88 17.88 0 0 1 0 16h0c-2.56-2.56-6.49 0-10.11 0l.11-4a6 6 0 0 0-6 6h0A5.91 5.91 0 0 0 44 36h0a5.13 5.13 0 0 0 3.53-1.41L50.11 32h0a17.88 17.88 0 0 1 0 16h0l-.73-.73C47.29 45.18 46.11 44 42.11 44 30.11 44 28 52 28 52"/></svg>