<svg xmlns="http://www.w3.org/2000/svg" width="64" height="64" viewBox="0 0 64 64" fill="none" stroke-width="1px" stroke="#000"><path d="M36.81 31.19a4.81 4.81 0 0 1-9.62 0M32 48a6 6 0 0 1-12 0V36a12 12 0 0 1 12-12h0a12 12 0 0 1 12 12v12a6 6 0 0 1-12 0V36"/><path d="M20 40h0a4 4 0 0 1-4-4V24.32A12.31 12.31 0 0 1 28.32 12h7.36A12.31 12.31 0 0 1 48 24.32V36a4 4 0 0 1-4 4h0M36 20h4M28 20h-4M40 53.62A18.21 18.21 0 0 1 32 56a18.43 18.43 0 0 1-8-2.34"/><path d="M36 12s11.59 1.29 15.94-3.54c.19-.21.59-.21.68.06 3.57 11.17-6.93 8.62-6.93 8.62M28 12s-11.59 1.29-15.94-3.54c-.19-.21-.59-.21-.68.06-3.57 11.17 6.91 8.65 6.91 8.65"/></svg>