<svg xmlns="http://www.w3.org/2000/svg" width="64" height="64" viewBox="0 0 64 64" fill="none" stroke-width="1px" stroke="#000"><circle cx="12" cy="12" r="4"/><circle cx="52" cy="12" r="4"/><circle cx="52" cy="52" r="4"/><circle cx="12" cy="52" r="4"/><path d="M19 45l2-2"/><path d="M23 41l2-2"/><path d="M27 37l2-2"/><path d="M31 33l2-2"/><path d="M35 29l2-2"/><path d="M39 25l2-2"/><path d="M43 21l2-2"/><path d="M19 19l2 2"/><path d="M23 23l2 2"/><path d="M27 27l2 2"/><path d="M31 31l2 2"/><path d="M35 35l2 2"/><path d="M39 39l2 2"/><path d="M43 43l2 2"/><path d="M12.15 45.49a24 24 0 010-27"/><path d="M45.49 51.85a24 24 0 01-27 0"/><path d="M18.51 12.15a24 24 0 0127 0"/><path d="M51.85 18.51a24 24 0 010 27"/></svg>