<svg xmlns="http://www.w3.org/2000/svg" width="64" height="64" viewBox="0 0 64 64" fill="none" stroke="currentColor"><circle cx="12" cy="12" r="4"/><circle cx="52" cy="12" r="4"/><circle cx="52" cy="52" r="4"/><circle cx="12" cy="52" r="4"/><path d="m19 45 2-2"/><path d="m23 41 2-2"/><path d="m27 37 2-2"/><path d="m31 33 2-2"/><path d="m35 29 2-2"/><path d="m39 25 2-2"/><path d="m43 21 2-2"/><path d="m19 19 2 2"/><path d="m23 23 2 2"/><path d="m27 27 2 2"/><path d="m31 31 2 2"/><path d="m35 35 2 2"/><path d="m39 39 2 2"/><path d="m43 43 2 2"/><path d="M12.15 45.49a24 24 0 0 1 0-27"/><path d="M45.49 51.85a24 24 0 0 1-27 0"/><path d="M18.51 12.15a24 24 0 0 1 27 0"/><path d="M51.85 18.51a24 24 0 0 1 0 27"/></svg>