<svg xmlns="http://www.w3.org/2000/svg" width="64" height="64" viewBox="0 0 64 64" fill="none" stroke-width="1px" stroke="#000"><circle cx="46" cy="32" r="10"/><circle cx="36" cy="12" r="4"/><circle cx="36" cy="52" r="4"/><path d="M16.34 25.8h-.05a6 6 0 113.6-8.93v.05a9.17 9.17 0 002.5 2.86l2.8 2a4 4 0 003.1.61h0a3.3 3.3 0 013.28 1.38 3.33 3.33 0 01-5.42 3.86h0a3.92 3.92 0 00-2.68-1.72l-3.36-.44a9.41 9.41 0 00-3.77.33z"/><path d="M16.34 38.2h-.05a6 6 0 103.6 8.93h0a9.17 9.17 0 012.5-2.86l2.8-2a4 4 0 013.1-.61h0a3.3 3.3 0 003.28-1.38 3.33 3.33 0 00-5.42-3.86h0a3.92 3.92 0 01-2.68 1.72l-3.36.44a9.41 9.41 0 01-3.77-.38z"/></svg>