<svg xmlns="http://www.w3.org/2000/svg" width="64" height="64" viewBox="0 0 64 64" fill="none"><circle cx="46" cy="32" r="10"/><circle cx="36" cy="12" r="4"/><circle cx="36" cy="52" r="4"/><path d="M16.34 25.8h-.05a6 6 0 1 1 3.6-8.93v.05a9.17 9.17 0 0 0 2.5 2.86l2.8 2a4 4 0 0 0 3.1.61 3.3 3.3 0 0 1 3.28 1.38 3.33 3.33 0 0 1-5.42 3.86 3.92 3.92 0 0 0-2.68-1.72l-3.36-.44a9.41 9.41 0 0 0-3.77.33z"/><path d="M16.34 38.2h-.05a6 6 0 1 0 3.6 8.93 9.17 9.17 0 0 1 2.5-2.86l2.8-2a4 4 0 0 1 3.1-.61 3.3 3.3 0 0 0 3.28-1.38 3.33 3.33 0 0 0-5.42-3.86 3.92 3.92 0 0 1-2.68 1.72l-3.36.44a9.41 9.41 0 0 1-3.77-.38z"/></svg>