<svg xmlns="http://www.w3.org/2000/svg" width="64" height="64" viewBox="0 0 64 64" fill="none" stroke-width="1px" stroke="#000"><defs><clipPath id="a"><path d="M18.14 33.77l7.08 5.36L12 52l29.03-12.42-5.75-3.95 10.6-5.42-7.1-5.36L52 12 23 24.39l5.74 3.98-10.6 5.4z"/></clipPath></defs><g clip-path="url(#a)"><path d="M2.48 1.78h59.15v59.15H2.48z"/></g><path d="M18.14 33.77l7.08 5.36L12 52l29.03-12.42-5.75-3.95 10.6-5.42-7.1-5.36L52 12 23 24.39l5.74 3.98-10.6 5.4zM13.08 46.76a24 24 0 0 1 31.83-35M50.92 17.23a24 24 0 0 1-31.83 35"/></svg>