<svg xmlns="http://www.w3.org/2000/svg" width="64" height="64" viewBox="0 0 64 64" fill="none" stroke-width="1px" stroke="#000"><path d="M50 16.06c1.88 3.52-5.85 11.3-17.25 17.4s-22.22 8.18-24.1 4.67M24 45.71c-4.49 1.21-8.15 1.4-10.15.4M53.77 24.59c-.29 4-7.32 10.73-17.21 16l-.58.3M40.12 47.1l-1 .54c-7 3.59-13.59 5.29-16.8 4.54M54.15 35.35c-1 2.3-4 5.34-8.31 8.29M50.82 46.65c-1.13 1.8-4 4.14-7.65 6.1-3.45 1.84-6.77 2.9-8.92 3M16.48 30.68c-4.17 1-7.24.74-8.1-.87M43 11.32c1.58 3-4.89 9.5-14.44 14.61-1 .55-2.06 1.06-3.07 1.53M26.16 17.4c-.55.32-1.12.65-1.71 1-6.3 3.37-12.25 4.52-13.29 2.58s3.23-6.24 9.54-9.61S33 6.81 34 8.75c.5.94-.25 2.44-1.87 4.12"/></svg>