<svg xmlns="http://www.w3.org/2000/svg" width="64" height="64" viewBox="0 0 64 64" fill="none"><path d="M8 8h6v6H8z"/><path d="M22 8h6v6h-6z"/><path d="M36 8h6v6h-6z"/><path d="M52 10h2v2h-2z"/><path d="M10 52h2v2h-2z"/><path d="M24 52h2v2h-2z"/><path d="M38 52h2v2h-2z"/><path d="M52 52h2v2h-2z"/><path d="M14 22v6H8v-6z"/><path d="M14 36v6H8v-6z"/><path d="M28 22v6h-6v-6z"/><path d="M26 38v2h-2v-2z"/><path d="M40 24v2h-2v-2z"/><path d="M40 38v2h-2v-2z"/><path d="M54 24v2h-2v-2z"/><path d="M54 38v2h-2v-2z"/></svg>