<svg xmlns="http://www.w3.org/2000/svg" width="64" height="64" viewBox="0 0 64 64" fill="none" stroke-width="4px" stroke="#000"><defs><clipPath id="a"><path d="M32 56a16.06 16.06 0 0 0 15.92-14.32A28.08 28.08 0 0 0 44 24C41.4 19.73 32 8 32 8c0 8-8.34 17.13-12.19 22C11 41.19 20 56 32 56" stroke-linejoin="round"/></clipPath></defs><g clip-path="url(#a)"><path stroke-linejoin="round" d="M7.09 7.67h49.83v48.34H7.09z"/></g><path d="M32 56a16.06 16.06 0 0 0 15.92-14.32A28.08 28.08 0 0 0 44 24C41.4 19.73 32 8 32 8c0 8-8.34 17.13-12.19 22C11 41.19 20 56 32 56" stroke-linejoin="round"/><path d="M41.47 20.3C41.47 25.25 36 28 32 36c-5.37 10.73 2.29 19.83 2.29 19.83" stroke-linejoin="round"/></svg>