<svg xmlns="http://www.w3.org/2000/svg" width="64" height="64" viewBox="0 0 64 64" fill="none"><path d="M36.48 48H43s-.1-2.08-1.5-2.49A8 8 0 0 1 38 42.6a4.27 4.27 0 0 1-.6-3.94c.5-1.35 2.2-2.08 5.7-3.95 4.1-2.18 5.1-3.84 5.6-5.19s1.5-3.84 1.9-5.08a7.12 7.12 0 0 1 2-2.91A25.69 25.69 0 0 1 56 20s-2-1.76-2.7-2.28A6 6 0 0 0 50.2 16c-1.5-.21-3 .83-4 1.55s-3 2.6-3.8 3.33-2.8 1.14-6.1 3.21-17.78 10.62-17.78 10.62h5.26L8 43v1s21.9-6.52 24.6-5"/><path d="M55.65 27.87A24.4 24.4 0 0 1 56 32a24 24 0 0 1-41.41 16.52"/><path d="M8.9 38.52a24 24 0 0 1 35.68-27"/></svg>