<svg xmlns="http://www.w3.org/2000/svg" width="64" height="64" viewBox="0 0 64 64" fill="none" stroke-width="1px" stroke="#000"><path d="M44 11.21H20L8 32l12 20.78h24L56 32z"/><path d="M31.98 23.95h-8.62l1.6-6.04h13.99l1.69 6.04h-8.66z"/><path d="M29.39 31.89l-1.32-3.41h7.86l-1.3 3.41.39 3.83h-3.04l-2.99.01.4-3.84z"/><path d="M35.67 44.07v-1.29l2.84-2.73v-4.31l3.73-2.43 4.26 3.21-5.79 10.08h-2.29l-2.75-2.53z"/><path d="M17.5 36.49l4.27-3.18 3.77 2.4v4.31l2.85 2.73v1.29l-2.75 2.56h-2.32L17.5 36.49z"/></svg>