<svg xmlns="http://www.w3.org/2000/svg" width="64" height="64" viewBox="0 0 64 64" fill="none" stroke-width="4px" stroke="#000"><defs><clipPath id="a"><path d="M48.64 32.17H48c-7 0-8-1.67-8-8a8 8 0 1 0-16 0c0 6.36-1 7.86-8 7.86h-.67A7.85 7.85 0 0 0 8 39.86a8 8 0 0 0 8 8 7.88 7.88 0 0 0 7.86-7.36V40c0-5.86 1.84-8 8-8s8 2.17 8 7.86a8 8 0 0 0 8 8 7.93 7.93 0 0 0 8-8 8.1 8.1 0 0 0-7.22-7.69z"/></clipPath></defs><g clip-path="url(#a)"><path d="M-7.89-16.13h111.55V95.42H-7.89z"/></g><path d="M48.64 32.17H48c-7 0-8-1.67-8-8a8 8 0 1 0-16 0c0 6.36-1 7.86-8 7.86h-.67A7.85 7.85 0 0 0 8 39.86a8 8 0 0 0 8 8 7.88 7.88 0 0 0 7.86-7.36V40c0-5.86 1.84-8 8-8s8 2.17 8 7.86a8 8 0 0 0 8 8 7.93 7.93 0 0 0 8-8 8.1 8.1 0 0 0-7.22-7.69z"/></svg>