<svg xmlns="http://www.w3.org/2000/svg" width="64" height="64" viewBox="0 0 64 64" fill="none" stroke-width="1px" stroke="#000"><path d="M48.62 32.17c-2 0-4.31.11-6.16-.8-1.61-.78-2.18-2.36-2.39-4-.35-2.73.09-5.32-1.56-7.73a8 8 0 0 0-14 1.31c-1 2.39-.4 5-1 7.47-1.14 4.68-6.51 2.86-9.94 3.88-5.88 1.76-7.43 9.54-2.89 13.57s12.54 1.38 13.15-4.93c.21-2.17-.09-4.45 1.16-6.4s3.36-2.34 5.4-2.49c2.29-.16 5.14-.18 7.13 1.17 1.74 1.17 2.22 3.28 2.36 5.25a13.93 13.93 0 0 0 .54 4.17 8 8 0 0 0 2.3 3.36 8.16 8.16 0 0 0 8.14 1.42 7.81 7.81 0 0 0 1.78-13.7 8.07 8.07 0 0 0-4.02-1.55z"/></svg>