<svg xmlns="http://www.w3.org/2000/svg" width="64" height="64" viewBox="0 0 64 64" fill="none" stroke="currentColor"><path d="M41.94 8H22.06L8 22.06v19.88L22.06 56h19.88L56 41.94V22.06L41.94 8z"/><path d="m16.21 13.85 31.61 36.27"/><path d="m25.92 24.99 8.27-13.55"/><path d="m16.21 13.85 17.98-2.41"/><path d="m41.95 23.28-16.03 1.71"/><path d="m34.19 11.44 7.76 11.84"/><path d="m41.95 23.28-3.88 15.65"/><path d="m50.22 16.28-8.27 7"/><path d="m40.01 8-5.82 3.44"/><path d="m34.19 11.44 16.03 4.84"/><path d="m27.91 8 6.28 3.44"/><path d="m41.95 23.28 10.64 9.65"/><path d="m50.22 16.28 2.37 16.65"/><path d="M52.59 32.93 56 41.94"/><path d="m56 28.37-3.41 4.56"/><path d="m38.07 38.93 14.52-6"/><path d="m52.59 32.93-4.77 17.19"/><path d="m21.78 40.55 4.14-15.56"/><path d="m11.94 30.65 13.98-5.66"/><path d="m16.21 13.85-4.27 16.8"/><path d="m11.94 30.65 9.84 9.9"/><path d="m21.78 40.55 16.29-1.62"/><path d="m30.04 51.12 8.03-12.19"/><path d="m21.78 40.55 8.26 10.57"/><path d="m47.82 50.12-17.78 1"/><path d="m25.05 56 4.99-4.88"/><path d="m35.81 56-5.77-4.88"/><path d="m13.7 47.68 8.08-7.13"/><path d="m13.7 47.68 16.34 3.44"/><path d="m11.94 30.65 1.76 17.03"/><path d="m8 35.23 3.94-4.58"/><path d="m8 22.06 3.94 8.59"/></svg>