<svg xmlns="http://www.w3.org/2000/svg" width="64" height="64" viewBox="0 0 64 64" fill="none" stroke-width="1px" stroke="#000"><path d="M41.94 8H22.06L8 22.06v19.88L22.06 56h19.88L56 41.94V22.06L41.94 8z"/><path d="M16.21 13.85l31.61 36.27"/><path d="M25.92 24.99l8.27-13.55"/><path d="M16.21 13.85l17.98-2.41"/><path d="M41.95 23.28l-16.03 1.71"/><path d="M34.19 11.44l7.76 11.84"/><path d="M41.95 23.28l-3.88 15.65"/><path d="M50.22 16.28l-8.27 7"/><path d="M40.01 8l-5.82 3.44"/><path d="M34.19 11.44l16.03 4.84"/><path d="M27.91 8l6.28 3.44"/><path d="M41.95 23.28l10.64 9.65"/><path d="M50.22 16.28l2.37 16.65"/><path d="M52.59 32.93L56 41.94"/><path d="M56 28.37l-3.41 4.56"/><path d="M38.07 38.93l14.52-6"/><path d="M52.59 32.93l-4.77 17.19"/><path d="M21.78 40.55l4.14-15.56"/><path d="M11.94 30.65l13.98-5.66"/><path d="M16.21 13.85l-4.27 16.8"/><path d="M11.94 30.65l9.84 9.9"/><path d="M21.78 40.55l16.29-1.62"/><path d="M30.04 51.12l8.03-12.19"/><path d="M21.78 40.55l8.26 10.57"/><path d="M47.82 50.12l-17.78 1"/><path d="M25.05 56l4.99-4.88"/><path d="M35.81 56l-5.77-4.88"/><path d="M13.7 47.68l8.08-7.13"/><path d="M13.7 47.68l16.34 3.44"/><path d="M11.94 30.65l1.76 17.03"/><path d="M8 35.23l3.94-4.58"/><path d="M8 22.06l3.94 8.59"/></svg>