<svg xmlns="http://www.w3.org/2000/svg" width="64" height="64" viewBox="0 0 64 64" fill="none" stroke-width="1px" stroke="#000"><path d="M41.94 8H22.06L8 22.06v19.88L22.06 56h19.88L56 41.94V22.06L41.94 8zM16.21 13.85l31.61 36.27M25.92 24.99l8.27-13.55M16.21 13.85l17.98-2.41M41.95 23.28l-16.03 1.71M34.19 11.44l7.76 11.84M41.95 23.28l-3.88 15.65M50.22 16.28l-8.27 7M40.01 8l-5.82 3.44M34.19 11.44l16.03 4.84M27.91 8l6.28 3.44M41.95 23.28l10.64 9.65M50.22 16.28l2.37 16.65M52.59 32.93L56 41.94M56 28.37l-3.41 4.56M38.07 38.93l14.52-6M52.59 32.93l-4.77 17.19M21.78 40.55l4.14-15.56M11.94 30.65l13.98-5.66M16.21 13.85l-4.27 16.8M11.94 30.65l9.84 9.9M21.78 40.55l16.29-1.62M30.04 51.12l8.03-12.19M21.78 40.55l8.26 10.57M47.82 50.12l-17.78 1M25.05 56l4.99-4.88M35.81 56l-5.77-4.88M13.7 47.68l8.08-7.13M13.7 47.68l16.34 3.44M11.94 30.65l1.76 17.03M8 35.23l3.94-4.58M8 22.06l3.94 8.59"/></svg>