<svg xmlns="http://www.w3.org/2000/svg" width="64" height="64" viewBox="0 0 64 64" fill="none" stroke-width="4px" stroke="#000"><defs><clipPath id="a"><path d="M38.74 46.14A32.72 32.72 0 0 0 47 38.91a38.92 38.92 0 0 0 6.84-11.51 28.28 28.28 0 0 0-10.07-9.71"/></clipPath><clipPath id="b"><path d="M43.77 17.69a16 16 0 0 0-5-1.8" clip-path="url(#a)"/></clipPath></defs><path d="M37.88 42.64a12.57 12.57 0 0 1-17.42-3.77c-3.77-5.87-1.91-13.43 3.76-17.49 6.33-4.54 14.46-2.75 17.42 3.77 2.88 6.36 2.09 13.7-3.76 17.49"/><path d="M19 49.12a15.47 15.47 0 0 0 5.06 4c12.21 6 13-5.1 25.91-10.71 7.25-3.15 7.28-9.31 3.92-15h0c2.2-6.25 1.18-11.16-3.63-12-5.29-1-9.43-1.29-13.41-4.08-4.94-3.51-8.7-2.33-12.42 1.13h0-.54c-13.5-.44-9.57 9.4-14 19.4-5.04 11.5.62 15.89 9.11 17.26z"/><path d="M38.73 15.89a21.15 21.15 0 0 0-21.45 9.67 21.22 21.22 0 0 0-1.18 18.85 18.31 18.31 0 0 0 2.9 4.71 48 48 0 0 0 7.54.52 22.14 22.14 0 0 0 12.23-3.5 18.53 18.53 0 0 0 8.59-15.49c0-7.37-3.45-12-8.63-14.76zM38.73 15.89c-3.93-2.09-8.86-3.1-14-3.41h-.81"/><path d="M24.7 12.48h-.81c-.79.75-1.63 1.64-2.55 2.69M21.34 15.13c-8.51 9.69-10.71 22.34-5.24 29.28"/><g clip-path="url(#b)"><path d="M7.99 7.79h48.07v48.07H7.99z"/></g><path d="M38.74 46.14A32.72 32.72 0 0 0 47 38.91a38.92 38.92 0 0 0 6.84-11.51 28.28 28.28 0 0 0-10.07-9.71M43.77 17.69a16 16 0 0 0-5-1.8"/></svg>