<svg xmlns="http://www.w3.org/2000/svg" width="64" height="64" viewBox="0 0 64 64" fill="none" stroke-width="1px" stroke="#000"><path d="M23.997 15.996L31.994 8l7.997 7.997-7.997 7.998zM23.994 48.004l7.997-7.998 7.998 7.998L31.99 56zM39.994 31.996L47.991 24l7.998 7.997-7.998 7.998zM7.997 32.004l7.997-7.998 7.997 7.998L15.994 40z"/><path d="M11.213 43.993L14.14 33.07l10.924 2.927-2.927 10.925zM38.93 27.997l2.927-10.925 10.924 2.927-2.927 10.925zM17.071 22.148l2.927-10.925 10.925 2.927-2.927 10.925zM33.068 49.855l2.927-10.925 10.925 2.927-2.927 10.925z"/><path d="M38.928 35.995l10.925-2.927 2.927 10.925-10.925 2.927zM11.221 19.992l10.925-2.927 2.927 10.925-10.925 2.927zM17.07 41.853l10.924-2.927 2.927 10.925-10.924 2.927zM33.073 14.147l10.924-2.928 2.927 10.925L36 25.07z"/></svg>