<svg xmlns="http://www.w3.org/2000/svg" width="64" height="64" viewBox="0 0 64 64" fill="none" stroke="currentColor"><path d="M23.997 15.996 31.994 8l7.997 7.997-7.997 7.998z"/><path d="m23.994 48.004 7.997-7.998 7.998 7.998L31.99 56z"/><path d="M39.994 31.996 47.991 24l7.998 7.997-7.998 7.998z"/><path d="m7.997 32.004 7.997-7.998 7.997 7.998L15.994 40z"/><path d="M11.213 43.993 14.14 33.07l10.924 2.927-2.927 10.925z"/><path d="m38.93 27.997 2.927-10.925 10.924 2.927-2.927 10.925z"/><path d="m17.071 22.148 2.927-10.925 10.925 2.927-2.927 10.925z"/><path d="m33.068 49.855 2.927-10.925 10.925 2.927-2.927 10.925z"/><path d="m38.928 35.995 10.925-2.927 2.927 10.925-10.925 2.927z"/><path d="m11.221 19.992 10.925-2.927 2.927 10.925-10.925 2.927z"/><path d="m17.07 41.853 10.924-2.927 2.927 10.925-10.924 2.927z"/><path d="m33.073 14.147 10.924-2.928 2.927 10.925L36 25.07z"/></svg>