<svg xmlns="http://www.w3.org/2000/svg" width="64" height="64" viewBox="0 0 64 64" fill="none" stroke-width="1px" stroke="#000"><defs><clipPath id="a"><path d="M41.51 18.3v11.77"/></clipPath><clipPath id="b"><path d="M18.16 22.62h11.77"/></clipPath><clipPath id="c"><path d="M45.85 41.38H34.09"/></clipPath><clipPath id="d"><path d="M22.49 46V34.23"/></clipPath></defs><path d="M34.87 11.95v14.91"/><g clip-path="url(#a)"><path d="M8.91 5.64h49.46V58.9H8.91z"/></g><path d="M41.51 18.3v11.77M48.22 26.52v3.55M54.87 26.52v3.55M11.81 29.27h14.91"/><g clip-path="url(#b)"><path d="M5.5 5.78h53.26v49.46H5.5z"/></g><path d="M18.16 22.62h11.77M26.39 15.92h3.54M26.39 9.27h3.54M52.19 34.73H37.3"/><g clip-path="url(#c)"><path d="M5.27 8.77H58.5v49.46H5.27z"/></g><path d="M45.85 41.38H34.09M37.63 48.08h-3.54M37.63 54.73h-3.54M29.13 52.33V37.44"/><g clip-path="url(#d)"><path d="M5.64 5.4H55.1v53.26H5.64z"/></g><path d="M22.49 46V34.23M15.78 37.77v-3.54M9.13 37.77v-3.54"/></svg>