<svg xmlns="http://www.w3.org/2000/svg" width="64" height="64" viewBox="0 0 64 64" fill="none" stroke-width="1px" stroke="#000"><path d="M19.85 37.84a6.47 6.47 0 003.56-5 4.41 4.41 0 012.17-3.25h0a4.38 4.38 0 013.91-.19 6.52 6.52 0 10-3.87-6.82 4.38 4.38 0 01-2.18 3.24h0a4.37 4.37 0 01-3.89.2 6.5 6.5 0 00-8.11 9.41 6.56 6.56 0 008.41 2.41z"/><path d="M19.79 55.34a6.49 6.49 0 003.56-5 4.38 4.38 0 012.18-3.25h0a4.37 4.37 0 013.89-.21 6.49 6.49 0 009-5.12 4.33 4.33 0 012.17-3.23h0a4.36 4.36 0 013.9-.2 6.49 6.49 0 006.1-.5 6.51 6.51 0 00-6.69-11.12 6.48 6.48 0 00-3.24 4.83 4.37 4.37 0 01-2.17 3.23h0a4.34 4.34 0 01-3.89.2 6.5 6.5 0 00-9 5.13 4.36 4.36 0 01-2.17 3.23h0a4.37 4.37 0 01-3.89.21 6.5 6.5 0 00-8.12 9.4 6.56 6.56 0 008.37 2.4z"/><circle cx="17.02" cy="14.51" r="6.51"/></svg>