<svg xmlns="http://www.w3.org/2000/svg" width="64" height="64" viewBox="0 0 64 64" fill="none" stroke="currentColor"><path d="M41.39 31.84 8 42.73"/><path d="m30.54 26.15-19.42 7.41"/><path d="M30.54 26.15 8 42.73"/><path d="m30.54 26.15-17.29.49"/><path d="M26.07 16.46 37 29.54"/><path d="m37 29.54 1.85-7.11"/><path d="m26.07 16.46 12.78 5.97"/><path d="M38.85 22.43 56 26.5l-14.61 5.34"/><path d="M11.12 33.56 8 42.73 45.05 48l-3.66-16.16-10.85-5.69-12.47-5.62"/><path d="m41.39 31.84-2.54-9.41L34.34 16l-8.27.46-8 4.07-4.82 6.11-2.13 6.92"/></svg>