<svg xmlns="http://www.w3.org/2000/svg" width="64" height="64" viewBox="0 0 64 64" fill="none" stroke-width="1px" stroke="#000"><path d="M41.39 31.84L8 42.73"/><path d="M30.54 26.15l-19.42 7.41"/><path d="M30.54 26.15L8 42.73"/><path d="M30.54 26.15l-17.29.49"/><path d="M26.07 16.46L37 29.54"/><path d="M37 29.54l1.85-7.11"/><path d="M26.07 16.46l12.78 5.97"/><path d="M38.85 22.43L56 26.5l-14.61 5.34"/><path d="M11.12 33.56L8 42.73 45.05 48l-3.66-16.16-10.85-5.69-12.47-5.62"/><path d="M41.39 31.84l-2.54-9.41L34.34 16l-8.27.46-8 4.07-4.82 6.11-2.13 6.92"/></svg>