<svg xmlns="http://www.w3.org/2000/svg" width="64" height="64" viewBox="0 0 64 64" fill="none" stroke="currentColor"><path d="M32 16c-4.67 0-7.86 1-7.86 1s-2.31-4.07-6.59-6.49C13.98 8.49 11 7.82 11 7.82s-1.58 4.72-.86 9.39C11.06 23.19 13 28 13 28s-4.35 6.79-2.7 12.34C12.35 47.25 20.46 56 32 56s19.65-8.75 21.7-15.66C55.35 34.79 51 28 51 28s1.95-4.8 2.86-10.79c.71-4.67-.86-9.39-.86-9.39s-2.98.68-6.55 2.69C42.17 12.93 39.86 17 39.86 17s-3.19-1-7.86-1Z"/><path d="M10.04 39.12c7.3-.35 12.02 3.86 12.02 3.86S24 35.99 32.02 36c8.02-.01 9.96 6.98 9.96 6.98S46.7 38.77 54 39.12"/><path d="M27.62 30.52s-3.19-1.81-8.24-2.31"/><path d="M36.38 30.52s3.19-1.81 8.24-2.31"/><path d="m27 50-1-4 1.96.33c2.68.45 5.41.45 8.09 0l1.96-.33-1 4"/></svg>