<svg xmlns="http://www.w3.org/2000/svg" width="64" height="64" viewBox="0 0 64 64" fill="none" stroke-width="1px" stroke="#000"><defs><clipPath id="a"><path d="M24.81 32.62c-3 .58-5.32 2.27-5.12 5.66s3.88 5.57 7.56 5.38c6-.33 10.39-5.32 10.89-11.15m-6-.06a27.53 27.53 0 0 0 4.67.2c4.82-.27 7.74-2.74 7.53-6.44s-4.09-6.08-8-5.86c-6.33.35-11 5.91-11.52 12.27a15.89 15.89 0 0 1 2.62-.37 27.7 27.7 0 0 1 4.67.2z" clip-rule="evenodd"/></clipPath></defs><g clip-path="url(#a)"><path d="M2.32 4.89h57.71v57.65H2.32z"/></g><path d="M24.81 32.62c-3 .58-5.32 2.27-5.12 5.66s3.88 5.57 7.56 5.38c6-.33 10.39-5.32 10.89-11.15m-6-.06a27.53 27.53 0 0 0 4.67.2c4.82-.27 7.74-2.74 7.53-6.44s-4.09-6.08-8-5.86c-6.33.35-11 5.91-11.52 12.27a15.89 15.89 0 0 1 2.62-.37 27.7 27.7 0 0 1 4.67.2z"/><circle cx="32" cy="32" r="24"/></svg>