<svg xmlns="http://www.w3.org/2000/svg" width="64" height="64" viewBox="0 0 64 64" fill="none" stroke="currentColor"><path d="M34.78 24.94h1A20.52 20.52 0 0 1 54 36.47"/><path d="M48.54 23.94c-3.61-6.62-10.35-7.69-16.17-6.66-2.66-3.08-4.22-4.75-9-4.67-.65 4.65 1.54 10 1.54 10C13.51 17.22 10 8 10 8m11.41 17.74a11.65 11.65 0 0 0-5 5c-.94 2.18-.91 3.41-3.15 6.24a12.32 12.32 0 0 0-1.83 2.66c-1.77 3.78.48 9.41 4.76 10.16 1.54.45 4-.57 5.05-1.27a15.49 15.49 0 0 1 6.81-3.22c.38-.06 1.51-.3 2.79-.57 4.45-.9 9-5 9-9.79"/><path d="M24.49 31.57a2.63 2.63 0 0 1 2.59-2.66"/><path d="m46.2 39 3.16 6c3.23 6.12-2.74 13.05-9 10.48l-7-2.84"/></svg>