<svg xmlns="http://www.w3.org/2000/svg" width="64" height="64" viewBox="0 0 64 64" fill="none" stroke="currentColor"><path d="M24.46 31.41A6.63 6.63 0 0 1 22 26.13c0-6.88 10.5-13 24.08-14"/><path d="M24.81 9c.84 5.67-5.38 9.35-12.81 11 4-7.8 10.65-12 20-12 13.25 0 24 9.65 24 21.2"/><path d="M16 49.89a24 24 0 0 1-6.93-25S12.65 26.22 16 32"/><path d="M56 29.2v24L16 56V32l40-2.8z"/><path d="m36 38.6 20-1.4"/><path d="m16 48 40-2.8"/><path d="M36 30.6v16"/><path d="M20 35.72v2"/><path d="M24 41.44v2"/><path d="M28 35.16v2"/><path d="M32 40.88v2"/><path d="M19.4 17.33a11.7 11.7 0 0 0 4.28 4.18"/></svg>