<svg xmlns="http://www.w3.org/2000/svg" width="64" height="64" viewBox="0 0 64 64" fill="none" stroke-width="1px" stroke="#000"><defs><clipPath id="a"><path d="M43.76 25a.23.23 0 0 1 .21.13.23.23 0 0 1 0 .24l-4.44 7.11a.22.22 0 0 1-.2.12.24.24 0 0 1-.21-.12l-4.44-7.11a.23.23 0 0 1 0-.24.23.23 0 0 1 .21-.13zm-16.5.23l8.24 13.19a.49.49 0 0 1 0 .52l-3.29 5.27a.26.26 0 0 1-.42 0L20 25.37a.23.23 0 0 1 0-.24.23.23 0 0 1 .21-.13h6.61a.47.47 0 0 1 .44.23z"/></clipPath></defs><circle cx="32" cy="32" r="24"/><g clip-path="url(#a)"><path d="M8 8h48v48H8z"/></g><path d="M43.76 25a.23.23 0 0 1 .21.13.23.23 0 0 1 0 .24l-4.44 7.11a.22.22 0 0 1-.2.12.24.24 0 0 1-.21-.12l-4.44-7.11a.23.23 0 0 1 0-.24.23.23 0 0 1 .21-.13zm-16.5.23l8.24 13.19a.49.49 0 0 1 0 .52l-3.29 5.27a.26.26 0 0 1-.42 0L20 25.37a.23.23 0 0 1 0-.24.23.23 0 0 1 .21-.13h6.61a.47.47 0 0 1 .44.23z"/></svg>