<svg xmlns="http://www.w3.org/2000/svg" width="64" height="64" viewBox="0 0 64 64" fill="none" stroke-width="1px" stroke="#000"><path d="M53.61 35.81l-6.11 2a3.49 3.49 0 0 1-4.59-3.31V20.08a3.5 3.5 0 0 1 2.39-3.32l6.11-2A3.48 3.48 0 0 1 56 18v14.5a3.49 3.49 0 0 1-2.39 3.31z"/><path d="M47.27 37.91v6a3.5 3.5 0 0 1-2.38 3.32l-6.11 2a3.49 3.49 0 0 1-4.6-3.23V31.5a3.49 3.49 0 0 1 2.39-3.31l6.11-2 .23-.06"/><path d="M34.18 36.47l-4.13 1.38a3.5 3.5 0 0 1-4.6-3.31V20.08a3.51 3.51 0 0 1 2.39-3.32l6.11-2a3.49 3.49 0 0 1 4.6 3.24v9.49"/><path d="M29.82 37.91v6a3.5 3.5 0 0 1-2.39 3.32l-6.11 2A3.48 3.48 0 0 1 16.73 46V31.5a3.5 3.5 0 0 1 2.38-3.31l6.11-2 .23-.06"/><path d="M16.73 36.47l-4.14 1.38A3.49 3.49 0 0 1 8 34.54V20.08a3.5 3.5 0 0 1 2.39-3.32l6.11-2A3.48 3.48 0 0 1 21.09 18v9.49"/></svg>