<svg xmlns="http://www.w3.org/2000/svg" width="64" height="64" viewBox="0 0 64 64" fill="none" stroke-width="1px" stroke="#000"><path d="M56 13.85a52 52 0 0 0-47.9 0 51.94 51.94 0 0 0 24 42 51.94 51.94 0 0 0 23.9-42z"/><path d="M47.84 10.47a13.63 13.63 0 0 0-6.86 0A11.7 11.7 0 0 0 32.2 24a11.53 11.53 0 0 0 5.37 7.86l.6.36a13.82 13.82 0 0 1 5 5.25 14 14 0 0 1 1.93 6.39M26.59 32.32A13.27 13.27 0 0 0 32 21.69"/><path d="M37.57 31.85A11.21 11.21 0 0 0 27.2 32l-.61.33a13.68 13.68 0 0 1-7 1.7A19.21 19.21 0 0 1 12 32"/></svg>