<svg xmlns="http://www.w3.org/2000/svg" width="64" height="64" viewBox="0 0 64 64" fill="none" stroke="currentColor"><path d="M44.06 8a10 10 0 0 0-10 10 11.48 11.48 0 0 0 1.57 5.38 3.9 3.9 0 0 1-1.43 5.45 4 4 0 0 1-5.43-1.48 11.43 11.43 0 0 0-3.88-4.06 10 10 0 1 0 0 17.36 11.48 11.48 0 0 0 3.88-4 3.9 3.9 0 0 1 5.43-1.49 4 4 0 0 1 1.43 5.45A11.51 11.51 0 0 0 34.08 46a10 10 0 1 0 15-8.68A11.67 11.67 0 0 0 43.61 36a3.89 3.89 0 0 1-4-4 4 4 0 0 1 4-4 11.67 11.67 0 0 0 5.51-1.33 10 10 0 0 0 0-17.37 10.15 10.15 0 0 0-5-1.34z"/></svg>