<svg xmlns="http://www.w3.org/2000/svg" width="64" height="64" viewBox="0 0 64 64" fill="none" stroke-width="1px" stroke="#000"><path d="M44.06 8a10 10 0 00-10 10 11.48 11.48 0 001.57 5.38 3.9 3.9 0 01-1.43 5.45 4 4 0 01-5.43-1.48 11.43 11.43 0 00-3.88-4.06 10 10 0 100 17.36 11.48 11.48 0 003.88-4 3.9 3.9 0 015.43-1.49 4 4 0 011.43 5.45A11.51 11.51 0 0034.08 46a10 10 0 1015-8.68A11.67 11.67 0 0043.61 36a3.89 3.89 0 01-4-4 4 4 0 014-4 11.67 11.67 0 005.51-1.33 10 10 0 000-17.37 10.15 10.15 0 00-5-1.34z"/></svg>