<svg xmlns="http://www.w3.org/2000/svg" width="64" height="64" viewBox="0 0 64 64" fill="none" stroke-width="4px" stroke="#000"><defs><clipPath id="a"><path d="M44 32a28.72 28.72 0 0 0-23 4.86 34.12 34.12 0 0 0-4.17 3.72 28.86 28.86 0 0 0-4.2 5.66h-.1A23.7 23.7 0 0 1 8 32a24 24 0 0 1 37.27-20"/></clipPath><clipPath id="b"><path d="M8.03 56h48"/></clipPath></defs><path d="M52 18.73A24 24 0 0 1 18.73 52"/><circle cx="32" cy="32" r="12"/><g clip-path="url(#a)"><g clip-path="url(#b)"><path d="M47.75 48.13H6.12"/></g><path d="M8.03 56h48"/></g><path d="M44 32a28.72 28.72 0 0 0-23 4.86 34.12 34.12 0 0 0-4.17 3.72 28.86 28.86 0 0 0-4.2 5.66h-.1A23.7 23.7 0 0 1 8 32a24 24 0 0 1 37.27-20"/></svg>