<svg xmlns="http://www.w3.org/2000/svg" width="64" height="64" viewBox="0 0 64 64" fill="none"><path d="M43.43 42.31A17.6 17.6 0 0 0 45 40.24c.54.66 1 1.34 1.57 2 1.29 1.69 2.56 3.4 3.79 5.13a12.85 12.85 0 0 1-1.2 1.35 24 24 0 0 1-12.89 6.88 29 29 0 0 1-3.47.4h-1.74c-.52-.07-1-.08-1.55-.14A23.73 23.73 0 0 1 20 52.74c1-.76 2-1.5 3-2.25L34.4 42c.65.59 1.26 1.23 1.89 1.84s1.46 1.45 2.22 2.15a15.21 15.21 0 0 0 4.92-3.68z"/><path d="M9.68 23.21a20.81 20.81 0 0 1 1.52-3.11c.84 1.06 1.65 2.16 2.48 3.24l7.89 10.34q.27.33.51.69c-1.33 1.39-2.69 2.74-4 4.13a12.47 12.47 0 0 0 1.2 2.14 14.83 14.83 0 0 0 2.38 2.74A17.4 17.4 0 0 0 23.75 45c-.63.53-1.3 1-1.95 1.53-1.17.89-2.34 1.77-3.53 2.64-.56.39-1.1.82-1.67 1.19A24.09 24.09 0 0 1 8.85 38.3 25.5 25.5 0 0 1 8 32.6v-1.2c0-.42.05-.83.08-1.25a24.33 24.33 0 0 1 1.6-6.94z"/><path d="M42.84 17c1.51-1.13 3-2.26 4.56-3.35a23.89 23.89 0 0 1 5.47 30.15 2.44 2.44 0 0 1-.35-.43l-8.71-11.5c-.56-.76-1.14-1.5-1.7-2.26 1.27-1.37 2.6-2.68 3.88-4.05a15.59 15.59 0 0 0-3.75-5 18.47 18.47 0 0 0-2-1.52c.85-.75 1.76-1.4 2.6-2.04z"/><path d="M31.18 8h1.44c.9.06 1.8.11 2.7.24a23.74 23.74 0 0 1 8.73 3c-.62.49-1.28.92-1.9 1.38l-12.77 9.15c-.34-.29-.64-.62-1-.93-1-.93-1.92-1.89-2.9-2.81a9.4 9.4 0 0 0-1 .51A15.57 15.57 0 0 0 19 23.76c-1.8-2.26-3.52-4.59-5.22-6.93l-.15-.24a22.32 22.32 0 0 1 2.07-2.17 24.05 24.05 0 0 1 13.45-6.24c.67-.09 1.35-.11 2.03-.18z"/></svg>