<svg xmlns="http://www.w3.org/2000/svg" width="64" height="64" viewBox="0 0 64 64"><rect x="24" y="24" width="16" height="16" fill="none" stroke="#000" stroke-miterlimit="10" stroke-width="2"/><path d="M48,8h0a8,8,0,0,1,8,8v0a8,8,0,0,1-8,8H40a0,0,0,0,1,0,0V16a8,8,0,0,1,8-8Z" fill="none" stroke="#000" stroke-miterlimit="10" stroke-width="2"/><path d="M40,40h8a8,8,0,0,1,8,8v0a8,8,0,0,1-8,8h0a8,8,0,0,1-8-8V40A0,0,0,0,1,40,40Z" fill="none" stroke="#000" stroke-miterlimit="10" stroke-width="2"/><path d="M16,40h8a0,0,0,0,1,0,0v8a8,8,0,0,1-8,8h0a8,8,0,0,1-8-8v0A8,8,0,0,1,16,40Z" fill="none" stroke="#000" stroke-miterlimit="10" stroke-width="2"/><path d="M16,8h0a8,8,0,0,1,8,8v8a0,0,0,0,1,0,0H16a8,8,0,0,1-8-8v0A8,8,0,0,1,16,8Z" fill="none" stroke="#000" stroke-miterlimit="10" stroke-width="2"/></svg>