<svg xmlns="http://www.w3.org/2000/svg" width="64" height="64" viewBox="0 0 64 64"><path d="M20,56h0a8,8,0,0,1-8-8V36L8,32l4-4V16a8,8,0,0,1,8-8h0" fill="none" stroke="#000" stroke-miterlimit="10" stroke-width="2"/><path d="M44,8h0a8,8,0,0,1,8,8V28l4,4-4,4V48a8,8,0,0,1-8,8h0" fill="none" stroke="#000" stroke-miterlimit="10" stroke-width="2"/><line x1="20" y1="32" x2="24" y2="32" fill="none" stroke="#000" stroke-miterlimit="10" stroke-width="2"/><line x1="30" y1="32" x2="34" y2="32" fill="none" stroke="#000" stroke-miterlimit="10" stroke-width="2"/><line x1="40" y1="32" x2="44" y2="32" fill="none" stroke="#000" stroke-miterlimit="10" stroke-width="2"/></svg>