<svg xmlns="http://www.w3.org/2000/svg" width="64" height="64" viewBox="0 0 64 64"><path d="M8,24H48a0,0,0,0,1,0,0V48a8,8,0,0,1-8,8H16a8,8,0,0,1-8-8V24A0,0,0,0,1,8,24Z" fill="none" stroke="#000" stroke-miterlimit="10" stroke-width="2"/><line x1="28" y1="16" x2="28" y2="8" fill="none" stroke="#000" stroke-miterlimit="10" stroke-width="2"/><line x1="16" y1="16" x2="16" y2="8" fill="none" stroke="#000" stroke-miterlimit="10" stroke-width="2"/><line x1="40" y1="16" x2="40" y2="8" fill="none" stroke="#000" stroke-miterlimit="10" stroke-width="2"/><path d="M48,44h5.42A2.59,2.59,0,0,0,56,41.42V34.58A2.59,2.59,0,0,0,53.42,32H48" fill="none" stroke="#000" stroke-miterlimit="10" stroke-width="2"/></svg>