<svg xmlns="http://www.w3.org/2000/svg" width="64" height="64" viewBox="0 0 64 64"><polyline points="44 8 44 16 52 16" fill="none" stroke="#000" stroke-miterlimit="5"/><polygon points="52 16 44 8 12 8 12 56 52 56 52 16" fill="none" stroke="#000" stroke-miterlimit="5"/><path d="M44,24V40c0,2.21-5.37,4-12,4s-12-1.79-12-4V24c0-2.21,5.37-4,12-4S44,21.79,44,24Z" fill="none" stroke="#000" stroke-miterlimit="5"/><path d="M44,24c0,2.21-5.37,4-12,4s-12-1.79-12-4" fill="none" stroke="#000" stroke-miterlimit="5"/><path d="M44,32c0,2.21-5.37,4-12,4s-12-1.79-12-4" fill="none" stroke="#000" stroke-miterlimit="5"/></svg>