<svg xmlns="http://www.w3.org/2000/svg" width="64" height="64" viewBox="0 0 64 64"><polyline points="44 8 44 16 52 16" fill="none" stroke="#000" stroke-miterlimit="5"/><polygon points="52 16 44 8 12 8 12 56 52 56 52 16" fill="none" stroke="#000" stroke-miterlimit="5"/><polyline points="36 28.63 44 26.63 44 37.38 36 35.38" fill="none" stroke="#000" stroke-miterlimit="5"/><path d="M36,36a4,4,0,0,1-4,4l-8-.62a4,4,0,0,1-4-4V28.62a4,4,0,0,1,4-4L32,24a4,4,0,0,1,4,4Z" fill="none" stroke="#000" stroke-miterlimit="5"/></svg>