<svg xmlns="http://www.w3.org/2000/svg" width="64" height="64" viewBox="0 0 64 64"><path d="M32,20h0c-6,0-12,0-12-6a6,6,0,0,1,6-6C32,8,32,16,32,20Z" fill="none" stroke="#000" stroke-miterlimit="10" stroke-width="2"/><path d="M32,20h0c6,0,12,0,12-6a6,6,0,0,0-6-6C32,8,32,16,32,20Z" fill="none" stroke="#000" stroke-miterlimit="10" stroke-width="2"/><polyline points="12 32 12 56 52 56 52 32" fill="none" stroke="#000" stroke-miterlimit="3" stroke-width="2"/><rect x="8" y="20" width="48" height="12" fill="none" stroke="#000" stroke-miterlimit="3" stroke-width="2"/><line x1="32" y1="20" x2="32" y2="56" fill="none" stroke="#000" stroke-miterlimit="10" stroke-width="2"/></svg>