<svg xmlns="http://www.w3.org/2000/svg" width="64" height="64" viewBox="0 0 64 64"><rect x="8" y="8" width="16" height="48" rx="4" fill="none" stroke="#000" stroke-miterlimit="10"/><path d="M24,12H52a4,4,0,0,1,4,4V48a4,4,0,0,1-4,4H24" fill="none" stroke="#000" stroke-miterlimit="10"/><line x1="32" y1="44" x2="34" y2="44" fill="none" stroke="#000" stroke-miterlimit="10"/><line x1="46" y1="44" x2="48" y2="44" fill="none" stroke="#000" stroke-miterlimit="10"/><line x1="39" y1="44" x2="41" y2="44" fill="none" stroke="#000" stroke-miterlimit="10"/><line x1="32" y1="36" x2="34" y2="36" fill="none" stroke="#000" stroke-miterlimit="10"/><line x1="46" y1="36" x2="48" y2="36" fill="none" stroke="#000" stroke-miterlimit="10"/><line x1="39" y1="36" x2="41" y2="36" fill="none" stroke="#000" stroke-miterlimit="10"/><line x1="32" y1="28" x2="34" y2="28" fill="none" stroke="#000" stroke-miterlimit="10"/><line x1="46" y1="28" x2="48" y2="28" fill="none" stroke="#000" stroke-miterlimit="10"/><line x1="39" y1="28" x2="41" y2="28" fill="none" stroke="#000" stroke-miterlimit="10"/><polyline points="48 12 48 20 32 20 32 12" fill="none" stroke="#000" stroke-miterlimit="10"/></svg>