<svg xmlns="http://www.w3.org/2000/svg">

<symbol id="1INCH_8104" preserveAspectRatio="xMidYMid meet" width="100%" height="100%" viewBox="0 0 64 64" fill="none" stroke="currentColor"><path d="M46.78 45.69s1 2.24-.21 6.35c9.88-7.15 5.58-19.61 5.58-19.61A23.9 23.9 0 0 1 56.42 36C58 19.71 42.31 14.87 42.31 14.87a40.66 40.66 0 0 1 6.79-.4c-7.05-5.9-16.91-4.94-21.79-1.94l1.36-3.8a9.62 9.62 0 0 0-8.07 6.89c-.55-1.39-1.45-4.06-1.45-4.06a8.12 8.12 0 0 0-1.63 7.88C13.84 18.09 8 16 8 16s8.93 7.09 10.75 8.28c-.4 1.42-.4 2.1 0 2.77a4.06 4.06 0 0 1 .46 2.59 48 48 0 0 1-.74 5.7c-.4 1.48-1.46 3.33-1.9 5-.36 1.39.26 3.68 2 4.32a9.07 9.07 0 0 0 6.68.21A11.75 11.75 0 0 0 30 41.21a3.72 3.72 0 0 0 .75-2.82 3.85 3.85 0 0 1 1-2.62L33.92 33C44 40.94 35.25 51 23.3 52.5a20.64 20.64 0 0 0 23.48-6.81z"/><path d="M29 21.38a5.36 5.36 0 0 1-4 5.13l-1-1.76"/></symbol>

<symbol id="AAVE_7278" preserveAspectRatio="xMidYMid meet" width="100%" height="100%" viewBox="0 0 64 64" fill="none" stroke="currentColor"><path d="m42 44-8.12-22.73a2 2 0 0 0-3.76 0L22 44"/><path d="M23 32h8"/><circle cx="32" cy="32" r="24"/></symbol>

<symbol id="ABBC_3437" preserveAspectRatio="xMidYMid meet" width="100%" height="100%" viewBox="0 0 64 64" fill="none" stroke="currentColor"><circle cx="18.38" cy="34.84" r="4.54"/><circle cx="27.46" cy="34.84" r="4.54"/><circle cx="36.54" cy="34.84" r="4.54"/><path d="M45.62 39.38a4.54 4.54 0 1 1 4.55-4.54"/><path d="M22.92 23.48v17.04"/><path d="M32 23.48v11.36"/><circle cx="32" cy="32" r="24"/></symbol>

<symbol id="ADA_2010" preserveAspectRatio="xMidYMid meet" width="100%" height="100%" viewBox="0 0 64 64" fill="none" stroke="currentColor"><path d="M52 56 33 8h-2L12 56"/><path d="M52 28H12"/><path d="M56 36H8"/></symbol>

<symbol id="ADK_1706" preserveAspectRatio="xMidYMid meet" width="100%" height="100%" viewBox="0 0 64 64" fill="none" stroke="currentColor"><path d="M16 29.94a31.63 31.63 0 0 1 24-12v28.12c-6-4.37-11.13-4.87-16-4.12z"/><path d="M24 41.94s0-16 16-16"/><circle cx="32" cy="32" r="24"/></symbol>

<symbol id="AE_1700" preserveAspectRatio="xMidYMid meet" width="100%" height="100%" viewBox="0 0 64 64" fill="none" stroke="currentColor"><path d="M29.71 35.92A12.11 12.11 0 0 1 19 43 11 11 0 0 1 8 32a11.27 11.27 0 0 1 11-11c14.67 0 12.33 22 26 22 5.5 0 8.91-3 10.36-7.17"/><path d="M40 32h16a11 11 0 0 0-11-11 11.81 11.81 0 0 0-10.08 5.83"/></symbol>

<symbol id="AION_2062" preserveAspectRatio="xMidYMid meet" width="100%" height="100%" viewBox="0 0 64 64" fill="none" stroke="currentColor"><path d="M54 56 36 8h-8L10 56"/><circle cx="32" cy="50" r="6"/></symbol>

<symbol id="ALGO_4030" preserveAspectRatio="xMidYMid meet" width="100%" height="100%" viewBox="0 0 64 64" fill="none" stroke="currentColor"><path d="m36 56 20-36"/><path d="M8 56 36 8h8l12 48"/></symbol>

<symbol id="ANKR_3783" preserveAspectRatio="xMidYMid meet" width="100%" height="100%" viewBox="0 0 64 64" fill="none" stroke="currentColor"><circle cx="32" cy="32" r="8"/><polyline points="8 38 8 42 32 56 56 42 56 38"/><polyline points="56 26 56 22 32 8 8 22 8 26"/><line x1="32" y1="40" x2="32" y2="56"/></symbol>

<symbol id="ANT_1680" preserveAspectRatio="xMidYMid meet" width="100%" height="100%" viewBox="0 0 64 64" fill="none" stroke="currentColor"><path d="M56 24c-4 24-24 30-24 30S12 48 8 24c8-8 24-14 24-14s16 6 24 14z"/><path d="M15.62 42a15.79 15.79 0 0 1-1.85-7 14.89 14.89 0 0 1 14.16-15.06h.57l-1.87-1.88s7.55-1.27 17.25 4.62a2.33 2.33 0 0 1 0 1.18s4.56 2 4.95 5.83-2 6.05-4 6.36a1.67 1.67 0 0 0-.55-2.43 2.06 2.06 0 0 0-1.11-.25c-3 0-3.33 3.42-3.33 3.42a2.27 2.27 0 0 0 0 .52s-.55 5 8.33 4.92"/><path d="M34.78 25.65A5.21 5.21 0 0 0 38 27.54"/></symbol>

<symbol id="ARDR_1320" preserveAspectRatio="xMidYMid meet" width="100%" height="100%" viewBox="0 0 64 64" fill="none" stroke="currentColor"><path d="M37.13 42.93 20 52H8l24-40 6 10-18 30"/><path d="m30.37 34.71 11.93-5.54L56 52H44.58L30.37 34.71"/></symbol>

<symbol id="ARK_1586" preserveAspectRatio="xMidYMid meet" width="100%" height="100%" viewBox="0 0 64 64" fill="none" stroke="currentColor"><path d="M32 27 8 52l24-40 24 40-24-25z"/><path d="M23.36 36h17.28"/></symbol>

<symbol id="AR_5632" preserveAspectRatio="xMidYMid meet" width="100%" height="100%" viewBox="0 0 64 64" fill="none" stroke="currentColor"><circle cx="32" cy="32" r="24"/><path d="M23.33 25.72c1.58-4.39 7.67-5 11.69-3.92a6.16 6.16 0 0 1 5 6.25c.11 2.84-.34 12 .42 14.62"/><path d="M40 39.51c-4.19 4-10 3.78-13.6 2.72a5.45 5.45 0 0 1-1.72-9.56c1.61-1.16 4.09-1.67 7.41-1.67H40"/></symbol>

<symbol id="ATOM_3794" preserveAspectRatio="xMidYMid meet" width="100%" height="100%" viewBox="0 0 64 64" fill="none" stroke="currentColor"><ellipse cx="32" cy="32" rx="8" ry="24"/><ellipse cx="32" cy="32" rx="8" ry="24" transform="rotate(-60 31.999 31.996)"/><ellipse cx="32" cy="32" rx="24" ry="8" transform="rotate(-30 32.007 31.996)"/><circle cx="32" cy="32" r="2"/></symbol>

<symbol id="AVAX_5805" preserveAspectRatio="xMidYMid meet" width="100%" height="100%" viewBox="0 0 64 64" fill="none" stroke="currentColor"><path d="M36.71 26.17 28.16 41a2 2 0 0 1-1.73 1h-6a2 2 0 0 1-1.73-3l11.57-20a2 2 0 0 1 3.46 0l3 5.16a2 2 0 0 1-.02 2.01z"/><path d="M43.54 42H38a2 2 0 0 1-1.73-3L39 34.17a2 2 0 0 1 3.46 0L45.27 39a2 2 0 0 1-1.73 3z"/><circle cx="32" cy="32" r="24"/></symbol>

<symbol id="BAT_1697" preserveAspectRatio="xMidYMid meet" width="100%" height="100%" viewBox="0 0 64 64" fill="none" stroke="currentColor"><path d="M32 11.21 8 52.78h48L32 11.21z"/><path d="m32 27.94-9.51 16.48h19.02L32 27.94z"/><path d="M32 27.94V11.22"/><path d="M41.51 44.42 56 52.78"/><path d="M22.49 44.42 8 52.78"/></symbol>

<symbol id="BCD_2222" preserveAspectRatio="xMidYMid meet" width="100%" height="100%" viewBox="0 0 64 64" fill="none" stroke="currentColor"><path d="m8 24 24 32 24-32-8-12-8-4H24l-8 4-8 12z"/><path d="m16 12 8 4h16l8-4"/><path d="M28 32h4"/><path d="M32 32a4 4 0 0 0 0-8h-4v16h4a4 4 0 0 0 0-8"/><path d="m24 16-4 12-12-4"/><path d="m40 16 4 12 12-4"/></symbol>

<symbol id="BCH_1831" preserveAspectRatio="xMidYMid meet" width="100%" height="100%" viewBox="0 0 64 64" fill="none" stroke="currentColor"><path d="M16 48H8V16h8"/><path d="M48 16h8v32h-8"/><circle cx="32" cy="32" r="16"/><path d="m29.19 32.63 3.89-.93"/><path d="M33.08 31.7a4 4 0 1 0-1.87-7.78l-3.89.93 3.73 15.56 3.89-.93"/><path d="M33.08 31.7a4 4 0 0 1 1.86 7.78"/></symbol>

<symbol id="BCN_372" preserveAspectRatio="xMidYMid meet" width="100%" height="100%" viewBox="0 0 64 64" fill="none" stroke="currentColor"><path d="M24 32V20h14a6 6 0 0 1 0 12H18"/><path d="M24 36v8h14a6 6 0 0 0 0-12"/><circle cx="32" cy="32" r="24"/></symbol>

<symbol id="BEAM_3702" preserveAspectRatio="xMidYMid meet" width="100%" height="100%" viewBox="0 0 64 64" fill="none" stroke="currentColor"><path d="M18.58 40.35h26.84L32 17.65l-13.42 22.7z"/><circle cx="32" cy="32" r="24"/><path d="m32 32 20.35-12.72"/><path d="M10.04 22.31 32 32"/><path d="M56 32H32L8.24 28.61"/></symbol>

<symbol id="BNB_1839" preserveAspectRatio="xMidYMid meet" width="100%" height="100%" viewBox="0 0 64 64" fill="none" stroke="currentColor"><path d="m12 36-4-4 4-4"/><path d="m52 28 4 4-4 4"/><path d="m24 32 7.998-7.997L39.995 32l-7.997 7.997z"/><path d="M44 44 32 56 20 44"/><path d="M44 20 32 8 20 20"/></symbol>

<symbol id="BNT_1727" preserveAspectRatio="xMidYMid meet" width="100%" height="100%" viewBox="0 0 64 64" fill="none" stroke="currentColor"><path d="m48 36-16 8v12l16-8V36z"/><path d="M40 13 30 8l-10 5 10 5 10-5z"/><path d="M16 18v12l12 6V24l-12-6z"/><path d="M16 38v12l12 6V44l-12-6z"/><path d="m44 18-12 6v12l12-6V18z"/></symbol>

<symbol id="BSV_3602" preserveAspectRatio="xMidYMid meet" width="100%" height="100%" viewBox="0 0 64 64" fill="none" stroke="currentColor"><circle cx="32" cy="32" r="24"/><path d="M28 16v32"/><path d="M33 16v8"/><path d="M33 48v-8"/><path d="M21 40h15"/><path d="M21 24h15"/><path d="M28 32h8"/><path d="M36 24a4 4 0 0 1 0 8"/><path d="M36 32a4 4 0 0 1 0 8"/></symbol>

<symbol id="BTCB_4023" preserveAspectRatio="xMidYMid meet" width="100%" height="100%" viewBox="0 0 64 64" fill="none" stroke="currentColor"><circle cx="32" cy="32" r="24"/><path d="m32.44 15.92-8.7 30.8"/><path d="m37.26 17.28-2.18 7.7"/><path d="m28.56 48.08 2.17-7.7"/><path d="M23.53 21.72 38 25.8a4 4 0 0 1-2.18 7.7l-7.7-2.18"/><path d="M35.79 33.5a4 4 0 1 1-2.17 7.69l-14.44-4.07"/></symbol>

<symbol id="BTC_1" preserveAspectRatio="xMidYMid meet" width="100%" height="100%" viewBox="0 0 64 64" fill="none" stroke="currentColor"><circle cx="32" cy="32" r="24"/><path d="m32.44 15.92-8.7 30.8"/><path d="m37.26 17.28-2.18 7.7"/><path d="m28.56 48.08 2.17-7.7"/><path d="M23.53 21.72 38 25.8a4 4 0 0 1-2.18 7.7l-7.7-2.18"/><path d="M35.79 33.5a4 4 0 1 1-2.17 7.69l-14.44-4.07"/></symbol>

<symbol id="BTG_2083" preserveAspectRatio="xMidYMid meet" width="100%" height="100%" viewBox="0 0 64 64" fill="none" stroke="currentColor"><circle cx="32" cy="32" r="24"/><circle cx="32" cy="32" r="20"/><path d="M28 20v24"/><path d="M33 20v4"/><path d="M33 44v-4"/><path d="M24 40h12"/><path d="M24 24h12"/><path d="M28 32h8"/><path d="M36 24a4 4 0 0 1 0 8"/><path d="M36 32a4 4 0 0 1 0 8"/></symbol>

<symbol id="BTMX_3673" preserveAspectRatio="xMidYMid meet" width="100%" height="100%" viewBox="0 0 64 64" fill="none" stroke="currentColor"><path d="m36 32 14.88-15.12A3 3 0 0 1 56 19v29H8l22.88-22.88A3 3 0 0 1 36 27.24V48"/><path d="m32 48-4-8-8 8"/></symbol>

<symbol id="BTM_1866" preserveAspectRatio="xMidYMid meet" width="100%" height="100%" viewBox="0 0 64 64" fill="none" stroke="currentColor"><path d="M41.6 39.2 56 24.8l-3.6-13.2L41.6 8"/><path d="M39.2 22.4 24.8 8l-13.2 3.6L8 22.4"/><path d="M22.4 24.8 8 39.2l3.6 13.2L22.4 56"/><path d="M24.8 41.6 39.2 56l13.2-3.6L56 41.6"/></symbol>

<symbol id="BTS_463" preserveAspectRatio="xMidYMid meet" width="100%" height="100%" viewBox="0 0 64 64" fill="none" stroke="currentColor"><circle cx="32" cy="40" r="4"/><path d="M32 56V44"/><path d="M36 40h12"/><path d="M16 40h12"/><path d="m34.83 42.83 8.48 8.48"/><path d="m16 24 12 12"/><path d="M16 40V8l12 12v20"/><path d="m29.17 42.83-8.48 8.48"/><path d="m43.31 28.69-8.48 8.48"/><path d="M16 40a16 16 0 1 0 16-16h-4"/></symbol>

<symbol id="BTT_3718" preserveAspectRatio="xMidYMid meet" width="100%" height="100%" viewBox="0 0 64 64" fill="none" stroke="currentColor"><circle cx="32" cy="32" r="24"/><path d="M48.75 42.94H32.86A8.94 8.94 0 1 1 41.8 34"/><path d="M44.75 47.41H32.86a13.41 13.41 0 0 1 0-26.82 13.27 13.27 0 0 1 6.65 1.77"/><path d="M35.56 51.88h-2.7a17.88 17.88 0 0 1 0-35.76"/></symbol>

<symbol id="BUSD_4687" preserveAspectRatio="xMidYMid meet" width="100%" height="100%" viewBox="0 0 64 64" fill="none" stroke="currentColor"><path d="M8.006 32 32.005 8l23.999 24-24 24z"/><path d="M40 16 16 40"/><path d="M48 24 24 48"/><path d="m16 24 8 8"/></symbol>

<symbol id="CAKE_7186" preserveAspectRatio="xMidYMid meet" width="100%" height="100%" viewBox="0 0 64 64" fill="none" stroke="currentColor"><path d="M46.43 27.22c1-5.83 1.43-11.27 1.55-12.65a6 6 0 0 0-12-1.05c-.1 1.22-.48 5.58-.63 10.64-1.07-.1-2.2-.16-3.35-.16s-2.28.06-3.39.16c-.15-5.06-.53-9.42-.63-10.64a6 6 0 0 0-12 1.05c.12 1.38.6 6.82 1.55 12.65C11.76 30.14 8 34.77 8 40c0 8.84 10.75 16 24 16s24-7.16 24-16c0-5.23-3.76-9.86-9.57-12.78z"/><ellipse cx="24" cy="38" rx="3" ry="4"/><ellipse cx="40" cy="38" rx="3" ry="4"/></symbol>

<symbol id="CELO_5567" preserveAspectRatio="xMidYMid meet" width="100%" height="100%" viewBox="0 0 64 64" fill="none" stroke="currentColor"><circle cx="26" cy="38" r="18"/><circle cx="38" cy="26" r="18"/></symbol>

<symbol id="CEL_2700" preserveAspectRatio="xMidYMid meet" width="100%" height="100%" viewBox="0 0 64 64" fill="none" stroke="currentColor"><path d="M49.88 48a24 24 0 1 1 0-32"/><circle cx="52" cy="24" r="4"/></symbol>

<symbol id="CENNZ_2585" preserveAspectRatio="xMidYMid meet" width="100%" height="100%" viewBox="0 0 64 64" fill="none" stroke="currentColor"><path d="m40 40.37 12-7.82v7.82c0 5-4.58 8.51-9.61 7.69L30.9 46a8.12 8.12 0 0 1-6.9-8V16a8.19 8.19 0 0 1 9.61-7.95l11.49 2.13a8.13 8.13 0 0 1 6.9 8v2.68l-12 7.78V26a8.13 8.13 0 0 0-6.9-8l-11.49-2.07a8.2 8.2 0 0 0-9.61 8v22a8.12 8.12 0 0 0 6.9 8L30.39 56c5 .82 9.61-2.72 9.61-7.7z"/></symbol>

<symbol id="CHSB_2499" preserveAspectRatio="xMidYMid meet" width="100%" height="100%" viewBox="0 0 64 64" fill="none" stroke="currentColor"><path d="m36 16 8 4"/><path d="M36 34v18l2.67 2.67L48 50V40L14 23"/><path d="m36 48 20-10V26l-6-3"/><path d="m28 48-8-4"/><path d="m50 23-8 4"/><path d="M28 30V12l-2.67-2.67L14 15v8"/><path d="M50 23v-8L38.67 9.33 36 12v18"/><path d="M28 16 8 26v12l8 4v8l9.33 4.67L28 52V34"/><path d="m16 42 8-4"/></symbol>

<symbol id="CHZ_4066" preserveAspectRatio="xMidYMid meet" width="100%" height="100%" viewBox="0 0 64 64" fill="none" stroke="currentColor"><circle cx="32" cy="32" r="24"/><path d="m32 48 12-28H20l12 28z"/><path d="M44 20 25.84 33.62"/><path d="m20 20 18.16 13.62"/></symbol>

<symbol id="CKB_4948" preserveAspectRatio="xMidYMid meet" width="100%" height="100%" viewBox="0 0 64 64" fill="none" stroke="currentColor"><path d="M32 28V12h8l16 16v24h-8L24 28v16l-8-8V12"/><path d="M48 52V28l-8-8v16L16 12H8v24l16 16h8V36"/><path d="M16 36H8"/><path d="M48 28h8"/><path d="m32 52-8-8"/><path d="m40 20-8-8"/></symbol>

<symbol id="COMP_5692" preserveAspectRatio="xMidYMid meet" width="100%" height="100%" viewBox="0 0 64 64" fill="none" stroke="currentColor"><path d="M44.6 50.15V32.82A2.06 2.06 0 0 0 43.44 31l-21-10.34a2.1 2.1 0 0 0-3 1.85v13.16"/><path d="M36.2 56V45.22a2.07 2.07 0 0 0-1.2-1.85L14 33a2.1 2.1 0 0 0-3 1.84v7.79a2.07 2.07 0 0 0 1.16 1.85L35 55.78a2.13 2.13 0 0 0 2.2-.19l14.92-11a2.07 2.07 0 0 0 .88-1.68v-22.5a2.07 2.07 0 0 0-1.16-1.85l-21-10.34a2.1 2.1 0 0 0-3 1.85v13.2"/></symbol>

<symbol id="CRO_3635" preserveAspectRatio="xMidYMid meet" width="100%" height="100%" viewBox="0 0 64 64" fill="none" stroke="currentColor"><path d="M44 11.21H20L8 32l12 20.78h24L56 32z"/><path d="M31.98 23.95h-8.62l1.6-6.04h13.99l1.69 6.04h-8.66z"/><path d="m29.39 31.89-1.32-3.41h7.86l-1.3 3.41.39 3.83h-3.04l-2.99.01.4-3.84z"/><path d="M35.67 44.07v-1.29l2.84-2.73v-4.31l3.73-2.43 4.26 3.21-5.79 10.08h-2.29l-2.75-2.53z"/><path d="m17.5 36.49 4.27-3.18 3.77 2.4v4.31l2.85 2.73v1.29l-2.75 2.56h-2.32L17.5 36.49z"/></symbol>

<symbol id="CRPT_2447" preserveAspectRatio="xMidYMid meet" width="100%" height="100%" viewBox="0 0 64 64" fill="none" stroke="currentColor"><path d="M50.85 46.85a24 24 0 1 1 0-29.7"/><path d="M42.25 38.25a12 12 0 1 1 0-12.5"/><path d="M45.11 19.67a17.7 17.7 0 0 1 1.46 1.76"/><path d="M46.57 42.57a17.7 17.7 0 0 1-1.46 1.76"/><path d="M14.13 29.85a18 18 0 0 1 27.92-12.78"/><path d="M42.05 46.93a18 18 0 0 1-28-13.08"/></symbol>

<symbol id="CRV_6538" preserveAspectRatio="xMidYMid meet" width="100%" height="100%" viewBox="0 0 64 64" fill="none" stroke="currentColor"><path d="M37.68 23.22c6.12 3.14 7.74 6.12 7.74 9.55s-2.4 6.33-7 6.33-6 1.28-6.7 3c-.47 1.1-1 3.81-4.19 3.81-2.81 0-7.14-4.31-7.14-11.87s.85-11.19 3.84-12.45c5.88-2.46 13.45 1.63 13.45 1.63z"/><circle cx="32" cy="32" r="24"/></symbol>

<symbol id="DAI_4943" preserveAspectRatio="xMidYMid meet" width="100%" height="100%" viewBox="0 0 64 64" fill="none" stroke="currentColor"><path d="M8 28h48"/><path d="M8 36h48"/><path d="M16 52h12a20 20 0 0 0 0-40H16z"/></symbol>

<symbol id="DASH_131" preserveAspectRatio="xMidYMid meet" width="100%" height="100%" viewBox="0 0 64 64" fill="none" stroke="currentColor"><circle cx="32" cy="32" r="24"/><path d="M31 32H20"/><path d="M23.82 41h8.07a11.06 11.06 0 0 0 5.33-.93c2.84-1.31 4.54-4.11 5.22-7.78 1-5.45-.24-9.32-7.35-9.32"/><path d="M35.09 22.98h-8.1"/></symbol>

<symbol id="DCR_1168" preserveAspectRatio="xMidYMid meet" width="100%" height="100%" viewBox="0 0 64 64" fill="none" stroke="currentColor"><path d="M28 52h-8"/><path d="M36 12h8"/><path d="M44 12a12 12 0 0 1 0 24h-8l16 16"/><path d="m12 12 16 16h-8a12 12 0 0 0 0 24"/></symbol>

<symbol id="DENT_1886" preserveAspectRatio="xMidYMid meet" width="100%" height="100%" viewBox="0 0 64 64" fill="none" stroke="currentColor"><path d="M32 8a6 6 0 0 0-6 6v36a6 6 0 0 0 12 0V14a6 6 0 0 0-6-6z"/><path d="M10.62 21.1a6 6 0 0 0 2.62 8.07l32.07 16.35a6 6 0 0 0 5.45-10.69L18.69 18.48a6 6 0 0 0-8.07 2.62z"/><path d="M10.62 42.9a6 6 0 0 1 2.62-8.07l32.07-16.35a6 6 0 1 1 5.45 10.69L18.69 45.52a6 6 0 0 1-8.07-2.62z"/></symbol>

<symbol id="DGB_109" preserveAspectRatio="xMidYMid meet" width="100%" height="100%" viewBox="0 0 64 64" fill="none" stroke="currentColor"><circle cx="32" cy="32" r="24"/><path d="M26.28 28 20 43.19c13.22-.26 19.88-2.19 23.83-9.26 0 0 5.31-8.23-.93-11.14a13.84 13.84 0 0 0-5.19-1.14H22.15"/><path d="m24.44 43.02-1.67 4.31"/><path d="m34.56 16.99-1.81 4.66"/><path d="m29.77 42.49-1.89 4.84"/><path d="m39.68 16.99-1.81 4.66"/></symbol>

<symbol id="DGD_1229" preserveAspectRatio="xMidYMid meet" width="100%" height="100%" viewBox="0 0 64 64" fill="none" stroke="currentColor"><path d="M8.006 32 32.005 8l23.999 24-24 24z"/><path d="m18 42 14-14 14 14"/><path d="M32 8v48"/></symbol>

<symbol id="DGTX_2772" preserveAspectRatio="xMidYMid meet" width="100%" height="100%" viewBox="0 0 64 64" fill="none" stroke="currentColor"><path d="M36 56a24.4 24.4 0 0 0 0-48v12a12.45 12.45 0 0 1 9 12 12.45 12.45 0 0 1-9 12z"/><path d="M28 55.67A24 24 0 0 1 8 32 24.36 24.36 0 0 1 28 8v12h-6v24h6z"/></symbol>

<symbol id="DOGE_74" preserveAspectRatio="xMidYMid meet" width="100%" height="100%" viewBox="0 0 64 64" fill="none" stroke="currentColor"><circle cx="32" cy="32" r="24"/><path d="M22 44h10c12 0 12-8 12-12s0-12-12-12H22"/><path d="M28 20v24"/></symbol>

<symbol id="DOT_6636" preserveAspectRatio="xMidYMid meet" width="100%" height="100%" viewBox="0 0 64 64" fill="none" stroke="currentColor"><path d="m26 24-7 32"/><path d="M13.81 33.88a18 18 0 1 1 34.09-9.76C48.94 34 43.72 40 36.54 41.87c-7.48 2-14.64.87-16.5 9.37"/><circle cx="48" cy="52" r="4"/></symbol>

<symbol id="DRG_2593" preserveAspectRatio="xMidYMid meet" width="100%" height="100%" viewBox="0 0 64 64" fill="none" stroke="currentColor"><path d="M8 52c0-12 14.11-16 14.11-16S16 32 16 28h6.11S12 24 12 20h10.11S8 16 8 12h20a49.94 49.94 0 0 1 12.4 1.57l4.22 1.06A10 10 0 0 0 54.11 12a17.88 17.88 0 0 1 0 16c-2.56-2.56-6.49 0-10.11 0l.11-4a6 6 0 0 0-6 6A5.91 5.91 0 0 0 44 36a5.13 5.13 0 0 0 3.53-1.41L50.11 32a17.88 17.88 0 0 1 0 16l-.73-.73C47.29 45.18 46.11 44 42.11 44 30.11 44 28 52 28 52"/></symbol>

<symbol id="DX_3139" preserveAspectRatio="xMidYMid meet" width="100%" height="100%" viewBox="0 0 64 64" fill="none" stroke="currentColor"><path d="M36.81 31.19a4.81 4.81 0 0 1-9.62 0"/><path d="M32 48a6 6 0 0 1-12 0V36a12 12 0 0 1 12-12 12 12 0 0 1 12 12v12a6 6 0 0 1-12 0V36"/><path d="M20 40a4 4 0 0 1-4-4V24.32A12.31 12.31 0 0 1 28.32 12h7.36A12.31 12.31 0 0 1 48 24.32V36a4 4 0 0 1-4 4"/><path d="M36 20h4"/><path d="M28 20h-4"/><path d="M40 53.62A18.21 18.21 0 0 1 32 56a18.43 18.43 0 0 1-8-2.34"/><path d="M36 12s11.59 1.29 15.94-3.54c.19-.21.59-.21.68.06 3.57 11.17-6.93 8.62-6.93 8.62"/><path d="M28 12s-11.59 1.29-15.94-3.54c-.19-.21-.59-.21-.68.06-3.57 11.17 6.91 8.65 6.91 8.65"/></symbol>

<symbol id="EGLD_6892" preserveAspectRatio="xMidYMid meet" width="100%" height="100%" viewBox="0 0 64 64" fill="none" stroke="currentColor"><circle cx="12" cy="12" r="4"/><circle cx="52" cy="12" r="4"/><circle cx="52" cy="52" r="4"/><circle cx="12" cy="52" r="4"/><path d="m19 45 2-2"/><path d="m23 41 2-2"/><path d="m27 37 2-2"/><path d="m31 33 2-2"/><path d="m35 29 2-2"/><path d="m39 25 2-2"/><path d="m43 21 2-2"/><path d="m19 19 2 2"/><path d="m23 23 2 2"/><path d="m27 27 2 2"/><path d="m31 31 2 2"/><path d="m35 35 2 2"/><path d="m39 39 2 2"/><path d="m43 43 2 2"/><path d="M12.15 45.49a24 24 0 0 1 0-27"/><path d="M45.49 51.85a24 24 0 0 1-27 0"/><path d="M18.51 12.15a24 24 0 0 1 27 0"/><path d="M51.85 18.51a24 24 0 0 1 0 27"/></symbol>

<symbol id="ELA_2492" preserveAspectRatio="xMidYMid meet" width="100%" height="100%" viewBox="0 0 64 64" fill="none" stroke="currentColor"><path d="M44 32v14"/><path d="M20 32v14"/><path d="M44 46 20 32 8 39l24 14 24-14-12-7-24 14"/><path d="M32 39v14"/><path d="M44 11v14"/><path d="M20 11v14"/><path d="M44 25 20 11 8 18l24 14 24-14-12-7-24 14"/><path d="M32 18v14"/></symbol>

<symbol id="ELF_2299" preserveAspectRatio="xMidYMid meet" width="100%" height="100%" viewBox="0 0 64 64" fill="none" stroke="currentColor"><circle cx="46" cy="32" r="10"/><circle cx="36" cy="12" r="4"/><circle cx="36" cy="52" r="4"/><path d="M16.34 25.8h-.05a6 6 0 1 1 3.6-8.93v.05a9.17 9.17 0 0 0 2.5 2.86l2.8 2a4 4 0 0 0 3.1.61 3.3 3.3 0 0 1 3.28 1.38 3.33 3.33 0 0 1-5.42 3.86 3.92 3.92 0 0 0-2.68-1.72l-3.36-.44a9.41 9.41 0 0 0-3.77.33z"/><path d="M16.34 38.2h-.05a6 6 0 1 0 3.6 8.93 9.17 9.17 0 0 1 2.5-2.86l2.8-2a4 4 0 0 1 3.1-.61 3.3 3.3 0 0 0 3.28-1.38 3.33 3.33 0 0 0-5.42-3.86 3.92 3.92 0 0 1-2.68 1.72l-3.36.44a9.41 9.41 0 0 1-3.77-.38z"/></symbol>

<symbol id="ENJ_2130" preserveAspectRatio="xMidYMid meet" width="100%" height="100%" viewBox="0 0 64 64" fill="none" stroke="currentColor"><circle cx="32" cy="32" r="24"/><path d="M44 44H32s-6.09.3-9.82-.86C17.23 41.62 16 36.32 16 32s1.16-9.36 6-11.07c3.5-1.24 10-.93 10-.93h12"/><path d="M44 32H16"/></symbol>

<symbol id="EOS_1765" preserveAspectRatio="xMidYMid meet" width="100%" height="100%" viewBox="0 0 64 64" fill="none" stroke="currentColor"><path d="m32 56 16-12-4-24L32 8 20 20l-4 24 16 12z"/><path d="M44 20 32 56"/><path d="m20 20 12 36"/></symbol>

<symbol id="ETC_1321" preserveAspectRatio="xMidYMid meet" width="100%" height="100%" viewBox="0 0 64 64" fill="none" stroke="currentColor"><path d="M32 56 16 32 32 8l16 24-16 24z"/><path d="m16 32 16-8 16 8"/><path d="m16 32 16 8 16-8"/></symbol>

<symbol id="ETH_1027" preserveAspectRatio="xMidYMid meet" width="100%" height="100%" viewBox="0 0 64 64" fill="none" stroke="currentColor"><path d="M32 56 16 32 32 8l16 24-16 24z"/><path d="m16 32 16 8 16-8"/><path d="M32 8v48"/></symbol>

<symbol id="ETN_2137" preserveAspectRatio="xMidYMid meet" width="100%" height="100%" viewBox="0 0 64 64" fill="none" stroke="currentColor"><path d="m18.14 33.77 7.08 5.36L12 52l29.03-12.42-5.75-3.95 10.6-5.42-7.1-5.36L52 12 23 24.39l5.74 3.98-10.6 5.4z"/><path d="M13.08 46.76a24 24 0 0 1 31.83-35"/><path d="M50.92 17.23a24 24 0 0 1-31.83 35"/></symbol>

<symbol id="EURS_2989" preserveAspectRatio="xMidYMid meet" width="100%" height="100%" viewBox="0 0 64 64" fill="none" stroke="currentColor"><circle cx="32" cy="32" r="24"/><path d="M16 26h28"/><path d="M16 38h28"/><path d="M42.54 53.57c-11-2-19.37-10.91-19.37-21.57s8.32-19.54 19.37-21.57"/></symbol>

<symbol id="FCT_1087" preserveAspectRatio="xMidYMid meet" width="100%" height="100%" viewBox="0 0 64 64" fill="none" stroke="currentColor"><path d="M50 16.06c1.88 3.52-5.85 11.3-17.25 17.4s-22.22 8.18-24.1 4.67"/><path d="M24 45.71c-4.49 1.21-8.15 1.4-10.15.4"/><path d="M53.77 24.59c-.29 4-7.32 10.73-17.21 16l-.58.3"/><path d="m40.12 47.1-1 .54c-7 3.59-13.59 5.29-16.8 4.54"/><path d="M54.15 35.35c-1 2.3-4 5.34-8.31 8.29"/><path d="M50.82 46.65c-1.13 1.8-4 4.14-7.65 6.1-3.45 1.84-6.77 2.9-8.92 3"/><path d="M16.48 30.68c-4.17 1-7.24.74-8.1-.87"/><path d="M43 11.32c1.58 3-4.89 9.5-14.44 14.61-1 .55-2.06 1.06-3.07 1.53"/><path d="M26.16 17.4c-.55.32-1.12.65-1.71 1-6.3 3.37-12.25 4.52-13.29 2.58s3.23-6.24 9.54-9.61S33 6.81 34 8.75c.5.94-.25 2.44-1.87 4.12"/></symbol>

<symbol id="FET_3773" preserveAspectRatio="xMidYMid meet" width="100%" height="100%" viewBox="0 0 64 64" fill="none" stroke="currentColor"><path d="M8 8h6v6H8z"/><path d="M22 8h6v6h-6z"/><path d="M36 8h6v6h-6z"/><path d="M52 10h2v2h-2z"/><path d="M10 52h2v2h-2z"/><path d="M24 52h2v2h-2z"/><path d="M38 52h2v2h-2z"/><path d="M52 52h2v2h-2z"/><path d="M14 22v6H8v-6z"/><path d="M14 36v6H8v-6z"/><path d="M28 22v6h-6v-6z"/><path d="M26 38v2h-2v-2z"/><path d="M40 24v2h-2v-2z"/><path d="M40 38v2h-2v-2z"/><path d="M54 24v2h-2v-2z"/><path d="M54 38v2h-2v-2z"/></symbol>

<symbol id="FIL_2280" preserveAspectRatio="xMidYMid meet" width="100%" height="100%" viewBox="0 0 64 64" fill="none" stroke="currentColor"><path d="M39.19 17.32a3.2 3.2 0 0 0-1.37-.57 3.24 3.24 0 0 0-3.72 2.66l-4.24 25.41a3 3 0 0 1-3.45 2.47 3 3 0 0 1-1.68-.89"/><path d="m39.4 36.27-15.78-2.63"/><path d="m24.6 27.73 15.78 2.63"/><circle cx="32" cy="32" r="24"/></symbol>

<symbol id="FLOW_4558" preserveAspectRatio="xMidYMid meet" width="100%" height="100%" viewBox="0 0 64 64" fill="none" stroke="currentColor"><circle cx="32" cy="32" r="24"/><path d="M40 32H26a6 6 0 0 0-6 6 6 6 0 0 0 6 6 6 6 0 0 0 6-6V20h12"/></symbol>

<symbol id="FTM_3513" preserveAspectRatio="xMidYMid meet" width="100%" height="100%" viewBox="0 0 64 64" fill="none" stroke="currentColor"><path d="m48 32-13.55 7.62a5 5 0 0 1-4.9 0L16 32"/><path d="m48 32-13.55-7.62a5 5 0 0 0-4.9 0L16 32"/><path d="M16 20v24"/><path d="m16 48 13.55 7.62a5 5 0 0 0 4.9 0l11-6.19A5 5 0 0 0 48 45.08V18.92a5 5 0 0 0-2.55-4.35l-11-6.19a5 5 0 0 0-4.9 0L16 16"/><path d="M11.6 56C9.19 54.54 8 54 8 50.34"/><path d="M52.4 8c2.41 1.46 3.6 2 3.6 5.66"/></symbol>

<symbol id="FTT_4195" preserveAspectRatio="xMidYMid meet" width="100%" height="100%" viewBox="0 0 64 64" fill="none" stroke="currentColor"><path d="M24 10h32v12H24z"/><path d="M24 26h24v12H24z"/><path d="M24 42h12v12H24z"/><path d="M8 26h12v12H8z"/></symbol>

<symbol id="GNT_1455" preserveAspectRatio="xMidYMid meet" width="100%" height="100%" viewBox="0 0 64 64" fill="none" stroke="currentColor"><circle cx="32" cy="32" r="24"/><circle cx="31.67" cy="24.57" r="5.97"/><circle cx="31.67" cy="42.48" r="5.97"/><path d="M31.67 30.54v5.97"/><path d="m35.89 20.35 4.73-4.74"/></symbol>

<symbol id="GRIN_3709" preserveAspectRatio="xMidYMid meet" width="100%" height="100%" viewBox="0 0 64 64" fill="none" stroke="currentColor"><path d="m29.19 29.31-2.15-7.26-2.85 6.92-2.85-7.56-2.84 10"/><path d="m34.5 21.5 2.15 7.26 2.85-6.92 2.84 7.57 2.85-10"/><circle cx="32" cy="32" r="24"/><path d="M16.23 36a16.27 16.27 0 0 0 31.54 0l-5.39.75"/></symbol>

<symbol id="GRT_6719" preserveAspectRatio="xMidYMid meet" width="100%" height="100%" viewBox="0 0 64 64" fill="none" stroke="currentColor"><circle cx="32" cy="32" r="24"/><circle cx="32" cy="30" r="8"/><circle cx="44" cy="20" r="2"/><path d="m40 40-8 8"/></symbol>

<symbol id="GT_4269" preserveAspectRatio="xMidYMid meet" width="100%" height="100%" viewBox="0 0 64 64" fill="none" stroke="currentColor"><path d="M52 20 34.57 9.54a5 5 0 0 0-5.14 0L12 20v21.16a5 5 0 0 0 2.43 4.3L32 56l17.57-10.54a5 5 0 0 0 2.43-4.3V30"/><path d="m40 36 16-8"/></symbol>

<symbol id="GXC_1750" preserveAspectRatio="xMidYMid meet" width="100%" height="100%" viewBox="0 0 64 64" fill="none" stroke="currentColor"><path d="M42.52 35.54 25 53.09a10 10 0 0 1-14.06 0 10 10 0 0 1 0-14.06l3.5-3.49"/><path d="M17.94 32 39 10.91a10 10 0 0 1 14.06 0 10 10 0 0 1 0 14.06l-7 7"/><path d="M35.54 21.48 53.09 39a10 10 0 0 1 0 14.06 10 10 0 0 1-14.06 0L10.91 25a10 10 0 0 1 0-14.06 10 10 0 0 1 14.06 0l7 7"/></symbol>

<symbol id="HBAR_4642" preserveAspectRatio="xMidYMid meet" width="100%" height="100%" viewBox="0 0 64 64" fill="none" stroke="currentColor"><circle cx="32" cy="32" r="24"/><path d="M24 20v24"/><path d="M40 20v24"/><path d="M24 29h16"/><path d="M24 35h16"/></symbol>

<symbol id="HC_1903" preserveAspectRatio="xMidYMid meet" width="100%" height="100%" viewBox="0 0 64 64" fill="none" stroke="currentColor"><path d="M24 22v30"/><path d="M24 20v-8"/><path d="M40 12v32"/><path d="M24 32h16"/><path d="M57.4 35.91 52 44H16L8 32l8-12h24"/><path d="M20 12h8"/><path d="M36 12h8"/><path d="M20 52h8"/><path d="M40 46v6"/><path d="M36 52h8"/><path d="M57.4 28.09 52 20H42"/></symbol>

<symbol id="HEDG_3662" preserveAspectRatio="xMidYMid meet" width="100%" height="100%" viewBox="0 0 64 64" fill="none" stroke="currentColor"><path d="m20 16-8 40"/><path d="m52 8-8 40"/><path d="M16.8 32h30.31"/></symbol>

<symbol id="HOT_2682" preserveAspectRatio="xMidYMid meet" width="100%" height="100%" viewBox="0 0 64 64" fill="none" stroke="currentColor"><circle cx="32" cy="32" r="24"/><path d="M24 32h16"/><path d="M46 44a12 12 0 0 1 0-24"/><path d="M18 20a12 12 0 0 1 0 24"/></symbol>

<symbol id="HPT_3721" preserveAspectRatio="xMidYMid meet" width="100%" height="100%" viewBox="0 0 64 64" fill="none" stroke="currentColor"><path d="M32 56a16.06 16.06 0 0 0 15.92-14.32A28.12 28.12 0 0 0 44 24C41.4 19.73 32 8 32 8c0 8-8.34 17.13-12.19 22C11 41.19 20 56 32 56"/><path d="M41.47 20.3C41.47 25.25 36 28 32 36c-5.37 10.73 2.29 19.83 2.29 19.83"/></symbol>

<symbol id="HT_2502" preserveAspectRatio="xMidYMid meet" width="100%" height="100%" viewBox="0 0 64 64" fill="none" stroke="currentColor"><path d="M32 56a16.06 16.06 0 0 0 15.92-14.32A28.12 28.12 0 0 0 44 24C41.4 19.73 32 8 32 8c0 8-8.34 17.13-12.19 22C11 41.19 20 56 32 56"/><path d="M41.47 20.3C41.47 25.25 36 28 32 36c-5.37 10.73 2.29 19.83 2.29 19.83"/></symbol>

<symbol id="HUSD_4779" preserveAspectRatio="xMidYMid meet" width="100%" height="100%" viewBox="0 0 64 64" fill="none" stroke="currentColor"><path d="M40 44v-8a4 4 0 0 0-4-4h-8a4 4 0 0 1-4-4v-8"/><line x1="24" y1="44" x2="24" y2="38"/><line x1="40" y1="20" x2="40" y2="26"/><circle cx="32" cy="32" r="24"/></symbol>

<symbol id="ICX_2099" preserveAspectRatio="xMidYMid meet" width="100%" height="100%" viewBox="0 0 64 64" fill="none" stroke="currentColor"><circle cx="12.9" cy="51.1" r="4.9"/><circle cx="51.1" cy="12.9" r="4.9"/><path d="M18.76 41A16 16 0 0 1 41 18.73"/><path d="M45.05 22.74a16 16 0 0 1-22 22.53"/></symbol>

<symbol id="IOST_2405" preserveAspectRatio="xMidYMid meet" width="100%" height="100%" viewBox="0 0 64 64" fill="none" stroke="currentColor"><path d="M54 44V20L32 8 10 20v24l22 12 22-12z"/><path d="M46.67 24 32 16l-14.67 8 29.34 16L32 48l-14.67-8"/><path d="M39.33 32 32 36"/><path d="m32 28-7.33 4"/></symbol>

<symbol id="IOTX_2777" preserveAspectRatio="xMidYMid meet" width="100%" height="100%" viewBox="0 0 64 64" fill="none" stroke="currentColor"><path d="M56 20 32 32"/><path d="M32.14 19.93 44 14"/><path d="M44 14v36l12-6V20L32 8l-12 6 36 18"/><path d="m16 40.45-8 4 8 4v-8z"/><path d="m20.11 41.9 7.78-3.9-7.78-3.9v7.8z"/><path d="m28 24-6.75 3.38L28 30.75V24z"/><path d="m24 56 9-4.5-9-4.5v9z"/><path d="m16 20-8 4 8 4v-8z"/><path d="m32 32 24 12"/><path d="M56 32 32 44V8"/></symbol>

<symbol id="KCS_2087" preserveAspectRatio="xMidYMid meet" width="100%" height="100%" viewBox="0 0 64 64" fill="none" stroke="currentColor"><path d="M12 12v40"/><path d="M12 32 36 8l16 16"/><path d="M52 40 36 56 12 32"/><circle cx="36" cy="32" r="4"/></symbol>

<symbol id="KMD_1521" preserveAspectRatio="xMidYMid meet" width="100%" height="100%" viewBox="0 0 64 64" fill="none" stroke="currentColor"><path d="m49.72 20.76-2.13.71A11.1 11.1 0 0 0 40 32a8 8 0 1 1-8-8 11.1 11.1 0 0 0 10.53-7.59l.71-2.13a5.36 5.36 0 0 1 8.27-2.72c.17.14.33.28.49.44s.3.32.44.49a5.36 5.36 0 0 1-2.72 8.27z"/><path d="M55.15 25.64A24 24 0 1 1 38.36 8.85"/></symbol>

<symbol id="KNC_1982" preserveAspectRatio="xMidYMid meet" width="100%" height="100%" viewBox="0 0 64 64" fill="none" stroke="currentColor"><path d="M16 44V20L32 8l16 12v24L32 56 16 44z"/><path d="m32 8-4 24 4 24"/><path d="m28 32 20-12"/><path d="M48 44 28 32"/></symbol>

<symbol id="KSM_5034" preserveAspectRatio="xMidYMid meet" width="100%" height="100%" viewBox="0 0 64 64" fill="none" stroke="currentColor"><path d="M36.48 48H43s-.1-2.08-1.5-2.49A8 8 0 0 1 38 42.6a4.27 4.27 0 0 1-.6-3.94c.5-1.35 2.2-2.08 5.7-3.95 4.1-2.18 5.1-3.84 5.6-5.19s1.5-3.84 1.9-5.08a7.12 7.12 0 0 1 2-2.91A25.69 25.69 0 0 1 56 20s-2-1.76-2.7-2.28A6 6 0 0 0 50.2 16c-1.5-.21-3 .83-4 1.55s-3 2.6-3.8 3.33-2.8 1.14-6.1 3.21-17.78 10.62-17.78 10.62h5.26L8 43v1s21.9-6.52 24.6-5"/><path d="M55.65 27.87A24.4 24.4 0 0 1 56 32a24 24 0 0 1-41.41 16.52"/><path d="M8.9 38.52a24 24 0 0 1 35.68-27"/></symbol>

<symbol id="LEND_2239" preserveAspectRatio="xMidYMid meet" width="100%" height="100%" viewBox="0 0 64 64" fill="none" stroke="currentColor"><path d="m28 28 8 8"/><path d="m40 16-8 8 8 8"/><path d="m24 48 8-8-8-8"/><circle cx="32" cy="32" r="24"/></symbol>

<symbol id="LEO_3957" preserveAspectRatio="xMidYMid meet" width="100%" height="100%" viewBox="0 0 64 64" fill="none" stroke="currentColor"><path d="M36 28h8V14L32 8l-4 2"/><path d="M20 40v10l12 6 4-2"/><path d="m32 40-4-4h8l-4 4"/><path d="m44 40 12-6V20l-8-4"/><path d="m16 48-8-4V34l12-6h8"/><path d="m32 16-8-4-16 8v8"/><path d="M32 40v8l8 4 11.97-5.98v-5.9"/></symbol>

<symbol id="LINK_1975" preserveAspectRatio="xMidYMid meet" width="100%" height="100%" viewBox="0 0 64 64" fill="none" stroke="currentColor"><path d="M56 20v24L32 56 8 44V20L32 8l24 12z"/><path d="M44 26v12l-12 6-12-6V26l12-6 12 6z"/></symbol>

<symbol id="LRC_1934" preserveAspectRatio="xMidYMid meet" width="100%" height="100%" viewBox="0 0 64 64" fill="none" stroke="currentColor"><path d="M41.88 40.82 36 32h20L24 52 8 40l16-28v40"/></symbol>

<symbol id="LSK_1214" preserveAspectRatio="xMidYMid meet" width="100%" height="100%" viewBox="0 0 64 64" fill="none" stroke="currentColor"><path d="M12 44 32 8l20 36-12 12H24L12 44z"/><path d="M22.5 42.3 32 25.2l9.5 17.1-5.7 5.7h-7.6l-5.7-5.7z"/><path d="M27.22 16.6 32 25.2"/><path d="m35.8 48-7.98 7.98"/></symbol>

<symbol id="LTC_2" preserveAspectRatio="xMidYMid meet" width="100%" height="100%" viewBox="0 0 64 64" fill="none" stroke="currentColor"><circle cx="32" cy="32" r="24"/><path d="m33.56 16.36-8.12 28.33h14.75"/><path d="m35.36 31.43-13.84 4.12"/></symbol>

<symbol id="LUNA_4172" preserveAspectRatio="xMidYMid meet" width="100%" height="100%" viewBox="0 0 64 64" fill="none" stroke="currentColor"><path d="M16.13 14a31.84 31.84 0 0 0 3.78 10.73A32.27 32.27 0 0 0 48 41.08a32.15 32.15 0 0 0 6.48-.65A24 24 0 1 1 16.13 14z"/><path d="M44.26 22.89A41.9 41.9 0 0 0 55.67 36a24 24 0 0 0 .33-4A24.39 24.39 0 0 0 35.27 8.22c-13.8-1.91-17.49 5.94-4 10.16 3.14 1 23.24 7 24.71 12"/></symbol>

<symbol id="MAID_291" preserveAspectRatio="xMidYMid meet" width="100%" height="100%" viewBox="0 0 64 64" fill="none" stroke="currentColor"><path d="M53.54 11.31v31.12c0 9.38-2.8 10.18-8.38 13.57L18 40.22c-8-4.58-7.37-7.58-7.57-14l27.15-15.53c7.98-4.58 10.18-2.59 15.96.62z"/><path d="m38.37 34.84-12.76-7.39 27.93-16.14"/><path d="m10.45 26.26 27.92 16.16V27.9"/><path d="m32.46 31.42 12.7-7.55.01 32.13"/></symbol>

<symbol id="MANA_1966" preserveAspectRatio="xMidYMid meet" width="100%" height="100%" viewBox="0 0 64 64" fill="none" stroke="currentColor"><circle cx="32" cy="32" r="24"/><path d="M33 41.84H10.1"/><path d="m10.11 41.84 12.96-17.58L34.6 39.92"/><path d="m51.2 46.4-11-13.2-11 13.2h22"/><path d="M12.8 46.4h16.4"/><path d="M40.2 33.2v13.2"/><path d="M23.07 24.26v17.58"/><circle cx="40.2" cy="23.6" r="6"/><circle cx="25" cy="17" r="3"/></symbol>

<symbol id="MATIC_3890" preserveAspectRatio="xMidYMid meet" width="100%" height="100%" viewBox="0 0 64 64" fill="none" stroke="currentColor"><path d="M40 20v28l8 4 8-4V20l-8-4-8 4z"/><path d="M40 28 16 16l-8 4v28l8 4 8-4V36"/><path d="m56 20-8 4-8-4"/><path d="M48 52V24"/><path d="M16 52V32l16 8 8-4"/><path d="m40 28-8 4L8 20"/><path d="M32 32v8"/></symbol>

<symbol id="MCO_1776" preserveAspectRatio="xMidYMid meet" width="100%" height="100%" viewBox="0 0 64 64" fill="none" stroke="currentColor"><path d="M44 11.21H20L8 32l12 20.78h24L56 32z"/><path d="M31.98 23.95h-8.62l1.6-6.04h13.99l1.69 6.04h-8.66z"/><path d="m29.39 31.89-1.32-3.41h7.86l-1.3 3.41.39 3.83h-3.04l-2.99.01.4-3.84z"/><path d="M35.67 44.07v-1.29l2.84-2.73v-4.31l3.73-2.43 4.26 3.21-5.79 10.08h-2.29l-2.75-2.53z"/><path d="m17.5 36.49 4.27-3.18 3.77 2.4v4.31l2.85 2.73v1.29l-2.75 2.56h-2.32L17.5 36.49z"/></symbol>

<symbol id="MIOTA_1720" preserveAspectRatio="xMidYMid meet" width="100%" height="100%" viewBox="0 0 64 64" fill="none" stroke="currentColor"><path d="M36.6 37.85S47.31 28.69 44.07 8"/><path d="M40.23 41.26s10.71-5.06 11.28-23.38"/><path d="M42.54 44.3S55.44 38.49 56 27.46"/><path d="M28.32 32.3s2.11 14.43 20.6 21.8"/><path d="M23.72 33.94S22.49 46.31 37.15 56"/><path d="M20.09 34.55s-1.71 14.76 7 20.79"/><path d="M36.08 26.13S23.25 20.86 8 34.18"/><path d="M37 21.09s-9.47-7.32-24.7 1.31"/><path d="M38.36 17.44s-11.18-9-20.46-4"/></symbol>

<symbol id="MKR_1518" preserveAspectRatio="xMidYMid meet" width="100%" height="100%" viewBox="0 0 64 64" fill="none" stroke="currentColor"><path d="M8 48V16l20 16v16"/><path d="M56 48V16L36 32v16"/></symbol>

<symbol id="MOF_2441" preserveAspectRatio="xMidYMid meet" width="100%" height="100%" viewBox="0 0 64 64" fill="none" stroke="currentColor"><circle cx="32" cy="32" r="8"/><circle cx="50" cy="50" r="6"/><circle cx="24" cy="52" r="4"/><circle cx="12" cy="44" r="4"/><circle cx="20" cy="12" r="4"/><path d="m22.06 15.43 5.82 9.71"/><path d="m37.66 37.66 8.1 8.1"/><path d="m29.03 39.43-3.54 8.86"/><path d="m15.33 46.22 5.34 3.56"/></symbol>

<symbol id="MONA_213" preserveAspectRatio="xMidYMid meet" width="100%" height="100%" viewBox="0 0 64 64" fill="none" stroke="currentColor"><path d="M32 45.5z"/><path d="M47 35a8.89 8.89 0 0 0-3.7-6.89l-2.14-9.61L37 25.12l-1.83-.37a16.13 16.13 0 0 0-6.27 0l-1.9.37-4.16-6.62-2.14 9.62A9 9 0 0 0 17 35c0 5.8 6.72 10.5 15 10.5S47 40.8 47 35z"/><path d="m26.1 29.71-3.44 2.81"/><path d="m28.86 33.96 3.08 4.42 3.19-4.41"/><path d="m41.34 32.52-3.44-2.81"/><circle cx="32" cy="32" r="24"/></symbol>

<symbol id="MVL_2982" preserveAspectRatio="xMidYMid meet" width="100%" height="100%" viewBox="0 0 64 64" fill="none" stroke="currentColor"><path d="M8 24v-7.41A4.58 4.58 0 0 1 12.59 12 4.59 4.59 0 0 1 17 15.27l10 33.46A4.59 4.59 0 0 0 31.41 52h1.18A4.59 4.59 0 0 0 37 48.73l10-33.46A4.59 4.59 0 0 1 51.41 12 4.58 4.58 0 0 1 56 16.59V52"/><line x1="8" y1="52" x2="8" y2="44"/><line x1="8" y1="30" x2="8" y2="38"/></symbol>

<symbol id="MX_4041" preserveAspectRatio="xMidYMid meet" width="100%" height="100%" viewBox="0 0 64 64" fill="none" stroke="currentColor"><path d="m32 20.88 1.37-2.38a5 5 0 0 1 8.67 0l12.7 22a5 5 0 0 1-4.33 7.5c-3.86 0-6.32-5.85-12.35-16.59L30.63 18.5a5 5 0 0 0-8.67 0l-12.7 22a5 5 0 0 0 4.33 7.5h36.82"/></symbol>

<symbol id="NANO_1567" preserveAspectRatio="xMidYMid meet" width="100%" height="100%" viewBox="0 0 64 64" fill="none" stroke="currentColor"><path d="M48.62 32.17c-2 0-4.31.11-6.16-.8-1.61-.78-2.18-2.36-2.39-4-.35-2.73.09-5.32-1.56-7.73a8 8 0 0 0-14 1.31c-1 2.39-.4 5-1 7.47-1.14 4.68-6.51 2.86-9.94 3.88-5.88 1.76-7.43 9.54-2.89 13.57s12.54 1.38 13.15-4.93c.21-2.17-.09-4.45 1.16-6.4s3.36-2.34 5.4-2.49c2.29-.16 5.14-.18 7.13 1.17 1.74 1.17 2.22 3.28 2.36 5.25a13.93 13.93 0 0 0 .54 4.17 8 8 0 0 0 2.3 3.36 8.16 8.16 0 0 0 8.14 1.42 7.81 7.81 0 0 0 1.78-13.7 8.07 8.07 0 0 0-4.02-1.55z"/></symbol>

<symbol id="NAS_1908" preserveAspectRatio="xMidYMid meet" width="100%" height="100%" viewBox="0 0 64 64" fill="none" stroke="currentColor"><path d="M22.3 36.62 31.9 56l5.02-14.44L56 31.9l-14.62-4.95L31.9 8l-9.6 28.62"/><path d="m22.3 36.62 19.08-9.67"/><path d="M36.92 41.56 8 31.78l19.18-9.71"/></symbol>

<symbol id="NEAR_6535" preserveAspectRatio="xMidYMid meet" width="100%" height="100%" viewBox="0 0 64 64" fill="none" stroke="currentColor"><path d="M36 28 51.58 9.06A2.5 2.5 0 0 1 56 10.68v42.79a2.5 2.5 0 0 1-4.4 1.64L12.4 8.89A2.5 2.5 0 0 0 8 10.53v42.79a2.5 2.5 0 0 0 4.42 1.62L28 36"/></symbol>

<symbol id="NEO_1376" preserveAspectRatio="xMidYMid meet" width="100%" height="100%" viewBox="0 0 64 64" fill="none" stroke="currentColor"><path d="m32 40 24 8V16L32 8 8 16v32l24 8V24l24-8"/></symbol>

<symbol id="NEXO_2694" preserveAspectRatio="xMidYMid meet" width="100%" height="100%" viewBox="0 0 64 64" fill="none" stroke="currentColor"><path d="M20.01 52.79V25.05"/><path d="m8 18.14 48 27.72"/><path d="M43.99 11.21v27.71"/><path d="m32 45.86-12 6.93-11.54-6.66a.94.94 0 0 1-.46-.81V18.14l11.55-6.66a.94.94 0 0 1 .92 0L44 25.05"/><path d="m32 18.14 12-6.93 11.55 6.66a.94.94 0 0 1 .46.81v27.18l-11.56 6.66a.94.94 0 0 1-.92 0L20 38.92"/></symbol>

<symbol id="NPXS_2603" preserveAspectRatio="xMidYMid meet" width="100%" height="100%" viewBox="0 0 64 64" fill="none" stroke="currentColor"><circle cx="32" cy="32" r="24"/><path d="M34.83 29.17 44 20"/><path d="m20 44 9.17-9.17"/><path d="M34.83 34.83 44 44"/><path d="m20 20 9.17 9.17"/><path d="m32 31.99.014.015-.014.014-.014-.014z"/></symbol>

<symbol id="NRG_3218" preserveAspectRatio="xMidYMid meet" width="100%" height="100%" viewBox="0 0 64 64" fill="none" stroke="currentColor"><path d="m28 36 16-16L32 8 8 32l24 24 24-24"/></symbol>

<symbol id="OKB_3897" preserveAspectRatio="xMidYMid meet" width="100%" height="100%" viewBox="0 0 64 64" fill="none" stroke="currentColor"><circle cx="32" cy="19" r="11"/><circle cx="32" cy="45" r="11"/><circle cx="45" cy="32" r="11"/><circle cx="19" cy="32" r="11"/></symbol>

<symbol id="OMG_1808" preserveAspectRatio="xMidYMid meet" width="100%" height="100%" viewBox="0 0 64 64" fill="none" stroke="currentColor"><circle cx="18" cy="18" r="10"/><circle cx="18" cy="46" r="10"/><circle cx="46" cy="18" r="10"/><path d="M32 8H18"/></symbol>

<symbol id="ONE_3945" preserveAspectRatio="xMidYMid meet" width="100%" height="100%" viewBox="0 0 64 64" fill="none" stroke="currentColor"><rect x="12" y="12" width="16" height="40" rx="8"/><rect x="36" y="12" width="16" height="40" rx="8"/><path d="M12 40c4-8 12-8 16.28-8h7.44C40 32 48 32 52 24"/></symbol>

<symbol id="ONT_2566" preserveAspectRatio="xMidYMid meet" width="100%" height="100%" viewBox="0 0 64 64" fill="none" stroke="currentColor"><path d="M49 49A24 24 0 0 1 8 32"/><path d="M15 15a24 24 0 0 1 41 17"/><path d="M8 32V8l48 48V32"/></symbol>

<symbol id="ORBS_3835" preserveAspectRatio="xMidYMid meet" width="100%" height="100%" viewBox="0 0 64 64" fill="none" stroke="currentColor"><path d="M41.94 8H22.06L8 22.06v19.88L22.06 56h19.88L56 41.94V22.06L41.94 8z"/><path d="m16.21 13.85 31.61 36.27"/><path d="m25.92 24.99 8.27-13.55"/><path d="m16.21 13.85 17.98-2.41"/><path d="m41.95 23.28-16.03 1.71"/><path d="m34.19 11.44 7.76 11.84"/><path d="m41.95 23.28-3.88 15.65"/><path d="m50.22 16.28-8.27 7"/><path d="m40.01 8-5.82 3.44"/><path d="m34.19 11.44 16.03 4.84"/><path d="m27.91 8 6.28 3.44"/><path d="m41.95 23.28 10.64 9.65"/><path d="m50.22 16.28 2.37 16.65"/><path d="M52.59 32.93 56 41.94"/><path d="m56 28.37-3.41 4.56"/><path d="m38.07 38.93 14.52-6"/><path d="m52.59 32.93-4.77 17.19"/><path d="m21.78 40.55 4.14-15.56"/><path d="m11.94 30.65 13.98-5.66"/><path d="m16.21 13.85-4.27 16.8"/><path d="m11.94 30.65 9.84 9.9"/><path d="m21.78 40.55 16.29-1.62"/><path d="m30.04 51.12 8.03-12.19"/><path d="m21.78 40.55 8.26 10.57"/><path d="m47.82 50.12-17.78 1"/><path d="m25.05 56 4.99-4.88"/><path d="m35.81 56-5.77-4.88"/><path d="m13.7 47.68 8.08-7.13"/><path d="m13.7 47.68 16.34 3.44"/><path d="m11.94 30.65 1.76 17.03"/><path d="m8 35.23 3.94-4.58"/><path d="m8 22.06 3.94 8.59"/></symbol>

<symbol id="PAI_2900" preserveAspectRatio="xMidYMid meet" width="100%" height="100%" viewBox="0 0 64 64" fill="none" stroke="currentColor"><circle cx="32" cy="32" r="12"/><path d="M20 56V32"/><path d="M44 32v14"/><circle cx="44" cy="12" r="4"/></symbol>

<symbol id="PAX_3330" preserveAspectRatio="xMidYMid meet" width="100%" height="100%" viewBox="0 0 64 64" fill="none" stroke="currentColor"><path d="M37.88 42.64a12.57 12.57 0 0 1-17.38-3.71v-.06c-3.81-5.87-1.95-13.43 3.72-17.49 6.33-4.54 14.46-2.75 17.42 3.77 2.88 6.36 2.09 13.7-3.76 17.49"/><path d="M19 49.12a15.51 15.51 0 0 0 5.06 4c12.21 6 13-5.1 25.91-10.71 7.25-3.15 7.28-9.31 3.92-15 2.2-6.25 1.18-11.16-3.63-12-5.29-1-9.43-1.29-13.41-4.08-4.94-3.51-8.7-2.33-12.42 1.13h-.54c-13.5-.44-9.57 9.4-14 19.4-5.04 11.5.62 15.89 9.11 17.26z"/><path d="M38.73 15.89a21.14 21.14 0 0 0-21.45 9.67 21.22 21.22 0 0 0-1.18 18.85 18.12 18.12 0 0 0 2.9 4.71 47.63 47.63 0 0 0 7.54.52 22.17 22.17 0 0 0 12.23-3.5 18.51 18.51 0 0 0 8.59-15.49c0-7.37-3.45-12-8.63-14.76z"/><path d="M38.73 15.89c-3.93-2.09-8.86-3.1-14-3.41h-.81"/><path d="M24.7 12.48h-.81c-.79.75-1.63 1.64-2.55 2.69"/><path d="M21.34 15.13c-8.51 9.69-10.71 22.34-5.24 29.28"/><path d="M38.74 46.14A32.8 32.8 0 0 0 47 38.91a38.92 38.92 0 0 0 6.84-11.51 28.22 28.22 0 0 0-10.07-9.71"/><path d="M43.77 17.69a16.1 16.1 0 0 0-5-1.8"/></symbol>

<symbol id="POWR_2132" preserveAspectRatio="xMidYMid meet" width="100%" height="100%" viewBox="0 0 64 64" fill="none" stroke="currentColor"><path d="M23.997 15.996 31.994 8l7.997 7.997-7.997 7.998z"/><path d="m23.994 48.004 7.997-7.998 7.998 7.998L31.99 56z"/><path d="M39.994 31.996 47.991 24l7.998 7.997-7.998 7.998z"/><path d="m7.997 32.004 7.997-7.998 7.997 7.998L15.994 40z"/><path d="M11.213 43.993 14.14 33.07l10.924 2.927-2.927 10.925z"/><path d="m38.93 27.997 2.927-10.925 10.924 2.927-2.927 10.925z"/><path d="m17.071 22.148 2.927-10.925 10.925 2.927-2.927 10.925z"/><path d="m33.068 49.855 2.927-10.925 10.925 2.927-2.927 10.925z"/><path d="m38.928 35.995 10.925-2.927 2.927 10.925-10.925 2.927z"/><path d="m11.221 19.992 10.925-2.927 2.927 10.925-10.925 2.927z"/><path d="m17.07 41.853 10.924-2.927 2.927 10.925-10.924 2.927z"/><path d="m33.073 14.147 10.924-2.928 2.927 10.925L36 25.07z"/></symbol>

<symbol id="QNT_3155" preserveAspectRatio="xMidYMid meet" width="100%" height="100%" viewBox="0 0 64 64" fill="none" stroke="currentColor"><path d="m42 26-10-6-10 6v12l10 6 10-6V26z"/><path d="M32 8v12"/><path d="m12 20 10 6"/><path d="m12 44 10-6"/><path d="M32 44v12"/><path d="m42 38 10-6V20L32 8 12 20v24l20 12 10-6 10 6V44l-10-6v12"/><path d="m52 20-10 6"/></symbol>

<symbol id="QTUM_1684" preserveAspectRatio="xMidYMid meet" width="100%" height="100%" viewBox="0 0 64 64" fill="none" stroke="currentColor"><path d="m56 32-4 16-12 8H24l-12-8-4-16 4-16 12-8h16l12 8 4 16z"/><path d="M8 32h48"/><path d="M12 48 40 8"/><path d="m12 16 28 40"/><path d="M52 16 24 56"/><path d="m24 8 28 40"/><path d="M24 56 8 32"/><path d="m40 56 16-24"/><path d="M8 32 24 8"/><path d="m40 8 16 24"/><path d="m56 56-4-8"/></symbol>

<symbol id="RCN_2096" preserveAspectRatio="xMidYMid meet" width="100%" height="100%" viewBox="0 0 64 64" fill="none" stroke="currentColor"><circle cx="32" cy="32" r="20"/><path d="m30 46-6-6 6-6"/><path d="M56 24s-8 16-32 16"/><path d="m34 18 6 6-6 6"/><path d="M8 40s8-16 32-16"/></symbol>

<symbol id="RDD_118" preserveAspectRatio="xMidYMid meet" width="100%" height="100%" viewBox="0 0 64 64" fill="none" stroke="currentColor"><path d="m11.56 19.41 17.93 36.46"/><path d="m34.57 8.14 4.81 46.7"/><path d="M55.13 25.59 22.77 54.16"/><path d="m18.41 51.8 20.68-38.08A8.75 8.75 0 0 1 47.34 8a8.66 8.66 0 0 1 3.71 16.49l-12-10.77"/><path d="m8.15 29.33 27.63-9.5"/><path d="M53.94 22.27A23.73 23.73 0 0 1 56 32a24 24 0 1 1-14.31-22"/></symbol>

<symbol id="RENBTC_5777" preserveAspectRatio="xMidYMid meet" width="100%" height="100%" viewBox="0 0 64 64" fill="none" stroke="currentColor"><circle cx="32" cy="32" r="24"/><line x1="32.44" y1="15.92" x2="23.74" y2="46.72"/><line x1="37.26" y1="17.28" x2="35.08" y2="24.98"/><line x1="28.56" y1="48.08" x2="30.73" y2="40.38"/><path d="M23.53 21.72 38 25.8a4 4 0 0 1-2.18 7.7l-7.7-2.18"/><path d="M35.79 33.5a4 4 0 1 1-2.17 7.69l-14.44-4.07"/></symbol>

<symbol id="REN_2539" preserveAspectRatio="xMidYMid meet" width="100%" height="100%" viewBox="0 0 64 64" fill="none" stroke="currentColor"><circle cx="32" cy="32" r="24"/><path d="m32 15.56-14.24 8.22"/><path d="M46.24 23.78 17.76 40.22"/><path d="m32 48.44 14.24-8.22"/><path d="M39.12 19.67 17.76 32"/><path d="M24.88 44.33 46.24 32"/></symbol>

<symbol id="REP_1104" preserveAspectRatio="xMidYMid meet" width="100%" height="100%" viewBox="0 0 64 64" fill="none" stroke="currentColor"><path d="M8 44 32 8l24 36-24 12L8 44z"/><path d="M32 56V46a2.28 2.28 0 0 1 1.79-2.22 8 8 0 0 0 5.06-3.66"/><path d="M31.85 8v18.12a2.29 2.29 0 0 1-1.79 2.22A8 8 0 0 0 25 32"/><path d="M28 42.93a8 8 0 0 1-3.53-4.23 2.3 2.3 0 0 0-3.19-1.34L8 44"/><path d="M36 29.07a8 8 0 0 1 3.92 5.77 2.25 2.25 0 0 0 1.23 1.73L56 44"/></symbol>

<symbol id="REV_2135" preserveAspectRatio="xMidYMid meet" width="100%" height="100%" viewBox="0 0 64 64" fill="none" stroke="currentColor"><path d="M15.09 12.83V55l9-4.83V18L37 25.4l-7.62 4.06-.06 13.08L48.91 56V46L35.7 36.67l11-5.8V20.56L24.11 8z"/></symbol>

<symbol id="RIF_3701" preserveAspectRatio="xMidYMid meet" width="100%" height="100%" viewBox="0 0 64 64" fill="none" stroke="currentColor"><path d="M34.87 12v14.86"/><path d="M41.51 18.3v11.77"/><path d="M48.22 26.52v3.55"/><path d="M54.87 26.52v3.55"/><path d="M11.81 29.27h14.91"/><path d="M18.16 22.62h11.77"/><path d="M26.39 15.92h3.54"/><path d="M26.39 9.27h3.54"/><path d="M52.19 34.73H37.3"/><path d="M45.85 41.38H34.09"/><path d="M37.63 48.08h-3.54"/><path d="M37.63 54.73h-3.54"/><path d="M29.13 52.33V37.44"/><path d="M22.49 46V34.23"/><path d="M15.78 37.77v-3.54"/><path d="M9.13 37.77v-3.54"/></symbol>

<symbol id="RLC_1637" preserveAspectRatio="xMidYMid meet" width="100%" height="100%" viewBox="0 0 64 64" fill="none" stroke="currentColor"><path d="M19.85 37.84a6.47 6.47 0 0 0 3.56-5 4.41 4.41 0 0 1 2.17-3.25 4.38 4.38 0 0 1 3.91-.19 6.52 6.52 0 1 0-3.87-6.82 4.38 4.38 0 0 1-2.18 3.24 4.37 4.37 0 0 1-3.89.2 6.5 6.5 0 0 0-8.11 9.41 6.56 6.56 0 0 0 8.41 2.41z"/><path d="M19.79 55.34a6.49 6.49 0 0 0 3.56-5 4.38 4.38 0 0 1 2.18-3.25 4.37 4.37 0 0 1 3.89-.21 6.49 6.49 0 0 0 9-5.12 4.33 4.33 0 0 1 2.17-3.23 4.36 4.36 0 0 1 3.9-.2 6.49 6.49 0 0 0 6.1-.5 6.51 6.51 0 0 0-6.69-11.12 6.48 6.48 0 0 0-3.24 4.83 4.37 4.37 0 0 1-2.17 3.23 4.34 4.34 0 0 1-3.89.2 6.5 6.5 0 0 0-9 5.13 4.36 4.36 0 0 1-2.17 3.23 4.37 4.37 0 0 1-3.89.21 6.5 6.5 0 0 0-8.12 9.4 6.56 6.56 0 0 0 8.37 2.4z"/><circle cx="17.02" cy="14.51" r="6.51"/></symbol>

<symbol id="RSR_3964" preserveAspectRatio="xMidYMid meet" width="100%" height="100%" viewBox="0 0 64 64" fill="none" stroke="currentColor"><circle cx="32" cy="32" r="24"/><path d="M28 20v24"/><path d="M36 20v24"/><path d="M44 36H20"/><path d="M20 28h24"/></symbol>

<symbol id="RUNE_4157" preserveAspectRatio="xMidYMid meet" width="100%" height="100%" viewBox="0 0 64 64" fill="none" stroke="currentColor"><path d="M52 8 24 20l20 24-32 12L52 8z"/></symbol>

<symbol id="RVN_2577" preserveAspectRatio="xMidYMid meet" width="100%" height="100%" viewBox="0 0 64 64" fill="none" stroke="currentColor"><path d="M41.39 31.84 8 42.73"/><path d="m30.54 26.15-19.42 7.41"/><path d="M30.54 26.15 8 42.73"/><path d="m30.54 26.15-17.29.49"/><path d="M26.07 16.46 37 29.54"/><path d="m37 29.54 1.85-7.11"/><path d="m26.07 16.46 12.78 5.97"/><path d="M38.85 22.43 56 26.5l-14.61 5.34"/><path d="M11.12 33.56 8 42.73 45.05 48l-3.66-16.16-10.85-5.69-12.47-5.62"/><path d="m41.39 31.84-2.54-9.41L34.34 16l-8.27.46-8 4.07-4.82 6.11-2.13 6.92"/></symbol>

<symbol id="SC_1042" preserveAspectRatio="xMidYMid meet" width="100%" height="100%" viewBox="0 0 64 64" fill="none" stroke="currentColor"><path d="M44 32a12 12 0 1 0-12 12h12z"/><circle cx="15" cy="15" r="3.03"/><path d="M19.91 11.26a24 24 0 1 1-8.65 8.65"/></symbol>

<symbol id="SEELE_2830" preserveAspectRatio="xMidYMid meet" width="100%" height="100%" viewBox="0 0 64 64" fill="none" stroke="currentColor"><path d="M35 8.19a24 24 0 0 1 19.13 33.12"/><path d="M9.87 41.31A24 24 0 0 1 29 8.19"/><path d="M51.12 46.5a24 24 0 0 1-38.24 0"/><circle cx="32" cy="32" r="6"/></symbol>

<symbol id="SERO_4078" preserveAspectRatio="xMidYMid meet" width="100%" height="100%" viewBox="0 0 64 64" fill="none" stroke="currentColor"><circle cx="32" cy="32" r="24"/><path d="M18.61 12.08C8 32 32 40 32 40"/><path d="M42 24c-2-8-6-8-10-8-8 0-8 4-8 8 0 8 16 8 16 16 0 4 0 8-8 8-4 0-8 0-10-8"/><path d="M45.39 51.92C56 32 32 24 32 24"/></symbol>

<symbol id="SNT_1759" preserveAspectRatio="xMidYMid meet" width="100%" height="100%" viewBox="0 0 64 64" fill="none" stroke="currentColor"><path d="M24.81 32.62c-3 .58-5.32 2.27-5.12 5.66s3.88 5.57 7.56 5.38c6-.33 10.39-5.32 10.89-11.15"/><path d="M32.14 32.45a27 27 0 0 0 4.67.2c4.82-.27 7.74-2.74 7.53-6.44s-4.09-6.08-8-5.86c-6.33.35-11 5.91-11.52 12.27a15.45 15.45 0 0 1 2.62-.37 27 27 0 0 1 4.67.2z"/><circle cx="32" cy="32" r="24"/></symbol>

<symbol id="SNX_2586" preserveAspectRatio="xMidYMid meet" width="100%" height="100%" viewBox="0 0 64 64" fill="none" stroke="currentColor"><circle cx="32" cy="32" r="24"/><path d="M29 32a6 6 0 0 1 0-12"/><path d="M35 32a6 6 0 0 1 0 12"/><path d="M29 32h6"/><path d="M40 20H29"/><path d="M24 44h11"/><path d="m34.67 28 2.66-4"/><path d="m26.67 40 2.66-4"/></symbol>

<symbol id="SOLVE_3724" preserveAspectRatio="xMidYMid meet" width="100%" height="100%" viewBox="0 0 64 64" fill="none" stroke="currentColor"><circle cx="32" cy="32" r="16"/><circle cx="32" cy="32" r="6"/><circle cx="15" cy="15" r="3"/><circle cx="49" cy="49" r="3"/><path d="M46.73 51a24 24 0 0 1-33.68-33.73"/><path d="M17.27 13.05A24 24 0 0 1 51 46.73"/></symbol>

<symbol id="SOL_5426" preserveAspectRatio="xMidYMid meet" width="100%" height="100%" viewBox="0 0 64 64" fill="none" stroke="currentColor"><path d="m40 28 8 8-8 8H16l8-8-8-8 8-8h24l-8 8z"/><path d="M16 28h24"/><path d="M24 36h24"/><circle cx="32" cy="32" r="24"/></symbol>

<symbol id="STEEM_1230" preserveAspectRatio="xMidYMid meet" width="100%" height="100%" viewBox="0 0 64 64" fill="none" stroke="currentColor"><path d="m32 19-1.44 2.86a7.29 7.29 0 0 0 0 6.56l2.72 5.5a10.71 10.71 0 0 1 .06 8.83l-1 2.32"/><path d="M23 21.7 21.86 24a5.79 5.79 0 0 0 0 5.18l2.14 4.3a8.51 8.51 0 0 1 .05 7l-.81 1.83"/><path d="M41 21.7 39.86 24a5.79 5.79 0 0 0 0 5.18l2.14 4.3a8.51 8.51 0 0 1 0 7l-.81 1.83"/><circle cx="32" cy="32" r="24"/></symbol>

<symbol id="STRAT_1343" preserveAspectRatio="xMidYMid meet" width="100%" height="100%" viewBox="0 0 64 64" fill="none" stroke="currentColor"><path d="m8 40 24 16 24-16v-8L32 48 8 32v-8L32 8l24 16-24 16L8 24"/></symbol>

<symbol id="STX_4847" preserveAspectRatio="xMidYMid meet" width="100%" height="100%" viewBox="0 0 64 64" fill="none" stroke="currentColor"><rect x="8" y="8" width="48" height="48" rx="8"/><circle cx="24" cy="24" r="4"/><circle cx="40" cy="24" r="4"/><circle cx="24" cy="40" r="4"/></symbol>

<symbol id="SUSHI_6758" preserveAspectRatio="xMidYMid meet" width="100%" height="100%" viewBox="0 0 64 64" fill="none" stroke="currentColor"><ellipse cx="38.84" cy="22.91" rx="3.29" ry="8.96" transform="rotate(-51.03 38.84 22.912)"/><path d="M22.7 9.85 9 28c-3.21 4 1.41 13 10.33 20.24s18.74 9.84 21.95 5.87L55 36"/><ellipse cx="38.84" cy="22.91" rx="9.24" ry="20.76" transform="rotate(-51.03 38.84 22.912)"/><path d="M14.81 44c8-1.84 6.88-8 10.88-8 4.38 0 4.57 8 10.31 8 4 0 8.2-7.39 8.2-7.39"/></symbol>

<symbol id="SXP_4279" preserveAspectRatio="xMidYMid meet" width="100%" height="100%" viewBox="0 0 64 64" fill="none" stroke="currentColor"><circle cx="32" cy="32" r="24"/><path d="M34.67 18.67a3.77 3.77 0 0 0-5.34 0L18.67 29.33a3.77 3.77 0 0 0 0 5.34"/><path d="M21.33 37.33a3.77 3.77 0 0 0 5.34 0l10.66-10.66a3.77 3.77 0 0 1 5.34 0l2.66 2.66a3.77 3.77 0 0 1 0 5.34L34.67 45.33a3.77 3.77 0 0 1-5.34 0"/></symbol>

<symbol id="TFUEL_3822" preserveAspectRatio="xMidYMid meet" width="100%" height="100%" viewBox="0 0 64 64" fill="none" stroke="currentColor"><path d="M28.44 24.93v5.35a1.79 1.79 0 0 1-1.79 1.78 1.78 1.78 0 0 1-1.78-1.78V28.5s-5.34.6-5.34 7.12a8.75 8.75 0 0 0 5.45 9 15.85 15.85 0 0 1 7 5.22s12.48-5.24 12.48-14.22c0-10.69-11-9.75-11-20.43a11.34 11.34 0 0 0-5.02 9.74z"/><path d="M32 42.74v-7.12"/><path d="M26.42 35.62h11.15"/><circle cx="32" cy="32" r="24"/></symbol>

<symbol id="THETA_2416" preserveAspectRatio="xMidYMid meet" width="100%" height="100%" viewBox="0 0 64 64" fill="none" stroke="currentColor"><path d="M20 12v40l4 4h16l4-4V12l-4-4H24l-4 4z"/><path d="M24 28h16"/><path d="M24 36h16"/><path d="M32 48V36"/><path d="M32 28V16"/></symbol>

<symbol id="TOMO_2570" preserveAspectRatio="xMidYMid meet" width="100%" height="100%" viewBox="0 0 64 64" fill="none" stroke="currentColor"><circle cx="32" cy="32" r="24"/><path d="M14.93 38.22a18.19 18.19 0 1 1 12.89 11.46"/><path d="M44.25 34.8a12.55 12.55 0 1 1-1-8.45"/><path d="M37.14 36.41a4 4 0 0 1-7.39-2v-8.79"/><path d="M26.22 29.17h10.92"/></symbol>

<symbol id="TRUE_2457" preserveAspectRatio="xMidYMid meet" width="100%" height="100%" viewBox="0 0 64 64" fill="none" stroke="currentColor"><path d="M56 28 32 52 8 28l12-16 12 4 12-4 12 16z"/><path d="M32 16v36"/><path d="M56 28H8"/><path d="M20 12v16"/><path d="M32 52 20 28"/><path d="M44 12v16"/><path d="m32 52 12-24"/><path d="m20 12 12 16"/><path d="M44 12 32 28"/></symbol>

<symbol id="TRX_1958" preserveAspectRatio="xMidYMid meet" width="100%" height="100%" viewBox="0 0 64 64" fill="none" stroke="currentColor"><path d="m8 8 36 8 12 8-28 32L8 8z"/><path d="m32 28 12-12"/><path d="m28 56 4-28"/><path d="m56 24-24 4"/><path d="m8 8 24 20"/></symbol>

<symbol id="TUSD_2563" preserveAspectRatio="xMidYMid meet" width="100%" height="100%" viewBox="0 0 64 64" fill="none" stroke="currentColor"><circle cx="32" cy="32" r="24"/><rect x="18" y="18" width="28" height="28" rx="4.17"/><path d="M32 24v10"/><path d="M26 24h12"/><path d="M18 38h28"/></symbol>

<symbol id="UBT_2758" preserveAspectRatio="xMidYMid meet" width="100%" height="100%" viewBox="0 0 64 64" fill="none" stroke="currentColor"><path d="M8 18v32l4 4h16l4-4V10h16l8 8v8l-4 4H32"/><path d="m52 30 4 4v8l-8 8H32"/></symbol>

<symbol id="UMA_5617" preserveAspectRatio="xMidYMid meet" width="100%" height="100%" viewBox="0 0 64 64" fill="none" stroke="currentColor"><path d="M24 28v8h-8v-8"/><path d="M48 36v-8h-8v8"/><path d="M45 32h-2"/><path d="M36 36v-8h-.5L32 32l-3.5-4H28v8"/><circle cx="32" cy="32" r="24"/></symbol>

<symbol id="UNI_7083" preserveAspectRatio="xMidYMid meet" width="100%" height="100%" viewBox="0 0 64 64" fill="none" stroke="currentColor"><path d="M34.78 24.94h1A20.52 20.52 0 0 1 54 36.47"/><path d="M48.54 23.94c-3.61-6.62-10.35-7.69-16.17-6.66-2.66-3.08-4.22-4.75-9-4.67-.65 4.65 1.54 10 1.54 10C13.51 17.22 10 8 10 8m11.41 17.74a11.65 11.65 0 0 0-5 5c-.94 2.18-.91 3.41-3.15 6.24a12.32 12.32 0 0 0-1.83 2.66c-1.77 3.78.48 9.41 4.76 10.16 1.54.45 4-.57 5.05-1.27a15.49 15.49 0 0 1 6.81-3.22c.38-.06 1.51-.3 2.79-.57 4.45-.9 9-5 9-9.79"/><path d="M24.49 31.57a2.63 2.63 0 0 1 2.59-2.66"/><path d="m46.2 39 3.16 6c3.23 6.12-2.74 13.05-9 10.48l-7-2.84"/></symbol>

<symbol id="USDC_3408" preserveAspectRatio="xMidYMid meet" width="100%" height="100%" viewBox="0 0 64 64" fill="none" stroke="currentColor"><circle cx="32" cy="32" r="24"/><path d="M28 47.5a16 16 0 0 1 0-31"/><path d="M36 16.5a16 16 0 0 1 0 31"/><path d="M30 32a4 4 0 0 1 0-8"/><path d="M34 32a4 4 0 0 1 0 8"/><path d="M32 20v4"/><path d="M32 40v4"/><path d="M30 32h4"/><path d="M38 26s-2-2-4-2h-4"/><path d="M26 38s2 2 4 2h4"/></symbol>

<symbol id="USDT_825" preserveAspectRatio="xMidYMid meet" width="100%" height="100%" viewBox="0 0 64 64" fill="none" stroke="currentColor"><path d="M56 32 32 56 8 32l8-20h32l8 20z"/><ellipse cx="32" cy="32" rx="12" ry="4"/><path d="M24 20h16"/><path d="M32 44V20"/></symbol>

<symbol id="UST_7129" preserveAspectRatio="xMidYMid meet" width="100%" height="100%" viewBox="0 0 64 64" fill="none" stroke="currentColor"><path d="M24.46 31.41A6.63 6.63 0 0 1 22 26.13c0-6.88 10.5-13 24.08-14"/><path d="M24.81 9c.84 5.67-5.38 9.35-12.81 11 4-7.8 10.65-12 20-12 13.25 0 24 9.65 24 21.2"/><path d="M16 49.89a24 24 0 0 1-6.93-25S12.65 26.22 16 32"/><path d="M56 29.2v24L16 56V32l40-2.8z"/><path d="m36 38.6 20-1.4"/><path d="m16 48 40-2.8"/><path d="M36 30.6v16"/><path d="M20 35.72v2"/><path d="M24 41.44v2"/><path d="M28 35.16v2"/><path d="M32 40.88v2"/><path d="M19.4 17.33a11.7 11.7 0 0 0 4.28 4.18"/></symbol>

<symbol id="VET_3077" preserveAspectRatio="xMidYMid meet" width="100%" height="100%" viewBox="0 0 64 64" fill="none" stroke="currentColor"><path d="M56 8 41.66 36.68a6.32 6.32 0 0 1-11.32 0L16 8H8l23.67 47.34a.37.37 0 0 0 .66 0L44 32"/></symbol>

<symbol id="VGX_1817" preserveAspectRatio="xMidYMid meet" width="100%" height="100%" viewBox="0 0 64 64" fill="none" stroke="currentColor"><circle cx="32" cy="32" r="24"/><path d="M42 22 32 46 22 22"/></symbol>

<symbol id="VSYS_3704" preserveAspectRatio="xMidYMid meet" width="100%" height="100%" viewBox="0 0 64 64" fill="none" stroke="currentColor"><circle cx="32" cy="32" r="24"/><path d="M43.76 25a.23.23 0 0 1 .21.13.21.21 0 0 1 0 .24l-4.44 7.11a.24.24 0 0 1-.2.12.24.24 0 0 1-.21-.12l-4.44-7.11a.21.21 0 0 1 0-.24.23.23 0 0 1 .21-.13z"/><path d="m27.26 25.23 8.24 13.19a.49.49 0 0 1 0 .52l-3.29 5.27a.26.26 0 0 1-.36.06l-.06-.06L20 25.37a.21.21 0 0 1 0-.24.23.23 0 0 1 .21-.13h6.61a.48.48 0 0 1 .44.23z"/></symbol>

<symbol id="VTHO_3012" preserveAspectRatio="xMidYMid meet" width="100%" height="100%" viewBox="0 0 64 64" fill="none" stroke="currentColor"><path d="M18 34 28 8h18L34 25h12L19.19 55.79h-.08L28 34z"/></symbol>

<symbol id="WAN_2606" preserveAspectRatio="xMidYMid meet" width="100%" height="100%" viewBox="0 0 64 64" fill="none" stroke="currentColor"><path d="M48.25 46.25 32 56l-16.25-9.75"/><path d="M49.08 18.25 32 8 14.92 18.25"/><path d="M12 23.5V44l20-12 20 12V23.5"/></symbol>

<symbol id="WAVES_1274" preserveAspectRatio="xMidYMid meet" width="100%" height="100%" viewBox="0 0 64 64" fill="none" stroke="currentColor"><path d="m32 8.006 24 23.999-24 23.999-24-24z"/></symbol>

<symbol id="WAXP_2300" preserveAspectRatio="xMidYMid meet" width="100%" height="100%" viewBox="0 0 64 64" fill="none" stroke="currentColor"><path d="m24 27.1-4.02 9.8-4.02-9.8-4.02 9.8-3.71-9.8"/><path d="m39.67 36.9-6.23-9.8-7.86 12.25"/><path d="M32.96 33.46h4.52"/><path d="M42 24.65 56 36.9"/><path d="m44.45 36.9 11.21-9.8"/><path d="M52.77 44a24 24 0 0 1-41.54 0"/><path d="M11.23 20a24 24 0 0 1 41.54 0"/></symbol>

<symbol id="WBTC_3717" preserveAspectRatio="xMidYMid meet" width="100%" height="100%" viewBox="0 0 64 64" fill="none" stroke="currentColor"><path d="M28 20v24"/><path d="M33 20v4"/><path d="M33 44v-4"/><path d="M24 40h12"/><path d="M24 24h12"/><path d="M28 32h8"/><path d="M36 24a4 4 0 0 1 0 8"/><path d="M36 32a4 4 0 0 1 0 8"/><path d="M17.77 12.68a24 24 0 0 1 28.46 0"/><path d="M12.68 46.23a24 24 0 0 1 0-28.46"/><path d="M46.23 51.32a24 24 0 0 1-28.46 0"/><path d="M51.32 17.77a24 24 0 0 1 0 28.46"/></symbol>

<symbol id="WICC_2346" preserveAspectRatio="xMidYMid meet" width="100%" height="100%" viewBox="0 0 64 64" fill="none" stroke="currentColor"><path d="M56 32a24 24 0 1 1-8.27-18.12"/><path d="m16.33 27.17 9.25 15.91 9.84-14.75 6.5 9.92 10.75-15.92"/></symbol>

<symbol id="WTC_1925" preserveAspectRatio="xMidYMid meet" width="100%" height="100%" viewBox="0 0 64 64" fill="none" stroke="currentColor"><path d="m53.61 35.81-6.11 2a3.49 3.49 0 0 1-4.59-3.31V20.08a3.5 3.5 0 0 1 2.39-3.32l6.11-2A3.48 3.48 0 0 1 56 18v14.5a3.49 3.49 0 0 1-2.39 3.31z"/><path d="M47.27 37.91v6a3.5 3.5 0 0 1-2.38 3.32l-6.11 2a3.49 3.49 0 0 1-4.6-3.23V31.5a3.49 3.49 0 0 1 2.39-3.31l6.11-2 .23-.06"/><path d="m34.18 36.47-4.13 1.38a3.5 3.5 0 0 1-4.6-3.31V20.08a3.51 3.51 0 0 1 2.39-3.32l6.11-2a3.49 3.49 0 0 1 4.6 3.24v9.49"/><path d="M29.82 37.91v6a3.5 3.5 0 0 1-2.39 3.32l-6.11 2A3.48 3.48 0 0 1 16.73 46V31.5a3.5 3.5 0 0 1 2.38-3.31l6.11-2 .23-.06"/><path d="m16.73 36.47-4.14 1.38A3.49 3.49 0 0 1 8 34.54V20.08a3.5 3.5 0 0 1 2.39-3.32l6.11-2A3.48 3.48 0 0 1 21.09 18v9.49"/></symbol>

<symbol id="XEM_873" preserveAspectRatio="xMidYMid meet" width="100%" height="100%" viewBox="0 0 64 64" fill="none" stroke="currentColor"><path d="M48.06 10.86a14.55 14.55 0 0 0-7.06-.39A11.7 11.7 0 0 0 32.2 24a11.53 11.53 0 0 0 5.37 7.86l.6.36a13.82 13.82 0 0 1 5 5.25 16.25 16.25 0 0 1 2 6.95"/><path d="M26.59 32.32A13.27 13.27 0 0 0 32 21.69"/><path d="M37.57 31.85A11.21 11.21 0 0 0 27.2 32l-.61.33a13.68 13.68 0 0 1-7 1.7c-2.63-.07-6.32-1.44-8.74-2.56"/><path d="M32 56C16 44 8 34 8 14c0 0 12-6 24-6s24 6 24 6c0 20-8 30-24 42z"/></symbol>

<symbol id="XLM_512" preserveAspectRatio="xMidYMid meet" width="100%" height="100%" viewBox="0 0 64 64" fill="none" stroke="currentColor"><path d="m8 40 48-24"/><path d="m8 48 48-24"/><path d="M12.8 37.6a20 20 0 0 1 30.73-21.94"/><path d="M51.2 26.4A20 20 0 0 1 20 48"/></symbol>

<symbol id="XMR_328" preserveAspectRatio="xMidYMid meet" width="100%" height="100%" viewBox="0 0 64 64" fill="none" stroke="currentColor"><circle cx="32" cy="32" r="24"/><path d="M53.59 42.5H45.5v-18L32 38 18.5 24.5v18h-8.09"/></symbol>

<symbol id="XRP_52" preserveAspectRatio="xMidYMid meet" width="100%" height="100%" viewBox="0 0 64 64" fill="none" stroke="currentColor"><path d="M44.06 8a10 10 0 0 0-10 10 11.48 11.48 0 0 0 1.57 5.38 3.9 3.9 0 0 1-1.43 5.45 4 4 0 0 1-5.43-1.48 11.43 11.43 0 0 0-3.88-4.06 10 10 0 1 0 0 17.36 11.48 11.48 0 0 0 3.88-4 3.9 3.9 0 0 1 5.43-1.49 4 4 0 0 1 1.43 5.45A11.51 11.51 0 0 0 34.08 46a10 10 0 1 0 15-8.68A11.67 11.67 0 0 0 43.61 36a3.89 3.89 0 0 1-4-4 4 4 0 0 1 4-4 11.67 11.67 0 0 0 5.51-1.33 10 10 0 0 0 0-17.37 10.15 10.15 0 0 0-5-1.34z"/></symbol>

<symbol id="XTZ_2011" preserveAspectRatio="xMidYMid meet" width="100%" height="100%" viewBox="0 0 64 64" fill="none" stroke="currentColor"><path d="M15.65 18.73h32.7L33.88 35.59a4.47 4.47 0 0 1 3.06-2c7.86-.75 11.24 5 11.24 11.22a11.24 11.24 0 0 1-20.07 6.92"/><path d="M24 40a6 6 0 0 0 12 0"/><path d="m20 8 4 4v28"/></symbol>

<symbol id="XVG_693" preserveAspectRatio="xMidYMid meet" width="100%" height="100%" viewBox="0 0 64 64" fill="none" stroke="currentColor"><path d="m12 8 20 48L52 8"/><path d="M23.67 8 32 28l8.33-20"/></symbol>

<symbol id="XZC_1414" preserveAspectRatio="xMidYMid meet" width="100%" height="100%" viewBox="0 0 64 64" fill="none" stroke="currentColor"><circle cx="32" cy="32" r="24"/><path d="m40 36 4-4v12H20l24-24H20v12l4-4"/></symbol>

<symbol id="YAP_4899" preserveAspectRatio="xMidYMid meet" width="100%" height="100%" viewBox="0 0 64 64" fill="none" stroke="currentColor"><circle cx="32" cy="32" r="24"/><circle cx="32" cy="32" r="16"/></symbol>

<symbol id="YFI_5864" preserveAspectRatio="xMidYMid meet" width="100%" height="100%" viewBox="0 0 64 64" fill="none" stroke="currentColor"><path d="M42.41 26.04 38.91 28l-1.94-3.49"/><path d="M21.58 37.94 25.09 36l1.94 3.47"/><path d="M35 33.18A9.35 9.35 0 0 1 38.91 36 6.7 6.7 0 0 1 40 40a8 8 0 0 1-16 0 7.89 7.89 0 0 1 1.09-4"/><path d="M29 30.82A9.35 9.35 0 0 1 25.09 28 6.7 6.7 0 0 1 24 24a8 8 0 0 1 16 0 7.89 7.89 0 0 1-1.09 4"/><path d="M32 42V22"/><circle cx="32" cy="32" r="24"/></symbol>

<symbol id="ZB_3351" preserveAspectRatio="xMidYMid meet" width="100%" height="100%" viewBox="0 0 64 64" fill="none" stroke="currentColor"><circle cx="32" cy="32" r="24"/><path d="m26.32 33.6 2 2.52a4.68 4.68 0 0 0 7.32 0l7.17-9a4.69 4.69 0 0 0-3.66-7.62H24.83a4.69 4.69 0 0 0-3.66 7.62l2.59 3.24"/><path d="m37.68 30.4-2-2.52a4.68 4.68 0 0 0-7.32 0l-7.17 9a4.69 4.69 0 0 0 3.66 7.62h14.32a4.69 4.69 0 0 0 3.66-7.62l-2.59-3.28"/></symbol>

<symbol id="ZEC_1437" preserveAspectRatio="xMidYMid meet" width="100%" height="100%" viewBox="0 0 64 64" fill="none" stroke="currentColor"><circle cx="32" cy="32" r="24"/><path d="M24 24h15.78a.09.09 0 0 1 .06.16L24.16 39.84a.09.09 0 0 0 .06.16H40"/><path d="M32 24v-8"/><path d="M32 40v8"/></symbol>

<symbol id="ZEN_1698" preserveAspectRatio="xMidYMid meet" width="100%" height="100%" viewBox="0 0 64 64" fill="none" stroke="currentColor"><path d="M52 18.73A24 24 0 0 1 18.73 52"/><circle cx="32" cy="32" r="12"/><path d="M44 32a28.69 28.69 0 0 0-23 4.86 34.21 34.21 0 0 0-4.17 3.72 28.66 28.66 0 0 0-4.2 5.66h-.1A23.63 23.63 0 0 1 8 32a24 24 0 0 1 37.27-20"/></symbol>

<symbol id="ZIL_2469" preserveAspectRatio="xMidYMid meet" width="100%" height="100%" viewBox="0 0 64 64" fill="none" stroke="currentColor"><path d="m24 40 16 8"/><path d="m16 44 32-16v-8L24 8l-8 4v8l24 12"/><path d="M40 56V40l8-4v16l-8 4-24-12v-8l16-8"/><path d="m16 12 24 12v8"/><path d="m48 20-8 4"/></symbol>

<symbol id="ZRX_1896" preserveAspectRatio="xMidYMid meet" width="100%" height="100%" viewBox="0 0 64 64" fill="none" stroke="currentColor"><path d="M43.43 42.31A17.6 17.6 0 0 0 45 40.24c.54.66 1 1.34 1.57 2 1.29 1.69 2.56 3.4 3.79 5.13a12.85 12.85 0 0 1-1.2 1.35 24 24 0 0 1-12.89 6.88 29 29 0 0 1-3.47.4h-1.74c-.52-.07-1-.08-1.55-.14A23.73 23.73 0 0 1 20 52.74c1-.76 2-1.5 3-2.25L34.4 42c.65.59 1.26 1.23 1.89 1.84s1.46 1.45 2.22 2.15a15.21 15.21 0 0 0 4.92-3.68z"/><path d="M9.68 23.21a20.81 20.81 0 0 1 1.52-3.11c.84 1.06 1.65 2.16 2.48 3.24l7.89 10.34q.27.33.51.69c-1.33 1.39-2.69 2.74-4 4.13a12.47 12.47 0 0 0 1.2 2.14 14.83 14.83 0 0 0 2.38 2.74A17.4 17.4 0 0 0 23.75 45c-.63.53-1.3 1-1.95 1.53-1.17.89-2.34 1.77-3.53 2.64-.56.39-1.1.82-1.67 1.19A24.09 24.09 0 0 1 8.85 38.3 25.5 25.5 0 0 1 8 32.6v-1.2c0-.42.05-.83.08-1.25a24.33 24.33 0 0 1 1.6-6.94z"/><path d="M42.84 17c1.51-1.13 3-2.26 4.56-3.35a23.89 23.89 0 0 1 5.47 30.15 2.44 2.44 0 0 1-.35-.43l-8.71-11.5c-.56-.76-1.14-1.5-1.7-2.26 1.27-1.37 2.6-2.68 3.88-4.05a15.59 15.59 0 0 0-3.75-5 18.47 18.47 0 0 0-2-1.52c.85-.75 1.76-1.4 2.6-2.04z"/><path d="M31.18 8h1.44c.9.06 1.8.11 2.7.24a23.74 23.74 0 0 1 8.73 3c-.62.49-1.28.92-1.9 1.38l-12.77 9.15c-.34-.29-.64-.62-1-.93-1-.93-1.92-1.89-2.9-2.81a9.4 9.4 0 0 0-1 .51A15.57 15.57 0 0 0 19 23.76c-1.8-2.26-3.52-4.59-5.22-6.93l-.15-.24a22.32 22.32 0 0 1 2.07-2.17 24.05 24.05 0 0 1 13.45-6.24c.67-.09 1.35-.11 2.03-.18z"/></symbol>



</svg>