<svg xmlns="http://www.w3.org/2000/svg">

<symbol id="arkane" viewBox="0 0 64 64"><rect x="8" y="8" width="48" height="48" rx="4" /><path d="M48,48,35.66,20.22a4,4,0,0,0-7.32,0L16,48" /><line x1="36" y1="32" x2="28" y2="32" /></symbol>

<symbol id="authereum" viewBox="0 0 64 64"><path d="M23.93,8,12,12V28c0,16,15.91,24,19.94,28C36,52,52,44,52,28V12L40,8" fill-rule="evenodd"/><polygon points="32 44 26 40 32 28 38 40 32 44" fill-rule="evenodd"/><polyline points="20 32 32 8 44 32" fill-rule="evenodd"/></symbol>

<symbol id="bitski" viewBox="0 0 64 64"><line x1="9.74" y1="35.17" x2="30.56" y2="56" /><path d="M34,24.76A9.81,9.81,0,0,0,20.15,10.88L9.74,21.29,37.5,49.06,51.39,35.17A9.82,9.82,0,1,0,37.5,21.29L23.62,35.17" /></symbol>

<symbol id="burnerwallet" viewBox="0 0 64 64"><path d="M32.07,8c2,2.63,3.26,6.65,3.26,12.33A11.66,11.66,0,0,1,13.07,25.2,50.14,50.14,0,0,0,12,36a20,20,0,0,0,40,0C52,16,43.08,8,32.07,8Z" /><path d="M48,48H44a8,8,0,0,1-8-8h0a8,8,0,0,1,8-8h7.87" /></symbol>

<symbol id="cipher" viewBox="0 0 64 64"><circle cx="32" cy="32" r="24" /><rect x="26.34" y="14.34" width="11.31" height="11.31" rx="2" transform="translate(23.51 -16.77) rotate(45)" /><rect x="26.34" y="38.34" width="11.31" height="11.31" rx="2" transform="translate(40.49 -9.74) rotate(45)" /><rect x="38.34" y="26.34" width="11.31" height="11.31" rx="2" transform="translate(35.51 -21.74) rotate(45)" /><rect x="14.34" y="26.34" width="11.31" height="11.31" rx="2" transform="translate(28.49 -4.77) rotate(45)" /></symbol>

<symbol id="coinbase" viewBox="0 0 64 64"><circle cx="32" cy="32" r="24" /><path d="M40.49,40.49a12,12,0,1,1,0-17" /></symbol>

<symbol id="dapper" viewBox="0 0 64 64"><path d="M31.67,8.33h.66A23.67,23.67,0,0,1,56,32V45.15A10.52,10.52,0,0,1,45.48,55.67h-27A10.52,10.52,0,0,1,8,45.15V32A23.67,23.67,0,0,1,31.67,8.33Z" fill-rule="evenodd"/><circle cx="22" cy="30" r="6" /><circle cx="42" cy="30" r="6" /><line x1="56" y1="8" x2="52" y2="12" /></symbol>

<symbol id="dcentwallet" viewBox="0 0 64 64"><polygon points="35.03 26.75 35.03 33.75 28.97 37.25 28.97 30.25 35.03 26.75" /><polygon points="52.78 44 52.78 20 32 8 11.21 20 11.21 44 32 56 52.78 44" /><polygon points="44.12 39 44.12 25 32 18 19.88 25 19.88 39 32 46 44.12 39" /></symbol>

<symbol id="fortmatic" viewBox="0 0 64 64"><polygon points="56 8 20 8 8 8 8 20 8 56 20 56 20 20 56 20 56 8" /><path d="M32,32V44H44V56A12,12,0,0,0,56,44V32Z" /></symbol>

<symbol id="frame" viewBox="0 0 64 64"><rect x="22.5" y="22.5" width="19" height="19" /><path d="M12,8H28l4,2H50a4,4,0,0,1,4,4V32l2,4V52a4,4,0,0,1-4,4H36l-4-2H14a4,4,0,0,1-4-4V32L8,28V12A4,4,0,0,1,12,8Z" /></symbol>

<symbol id="imtoken" viewBox="0 0 64 64"><path d="M55.88,16.21c1.58,21.44-12.2,31.57-24.56,32.65-11.48,1-22.3-6-23.25-16.9-.78-9,4.76-12.77,9.11-13.15s8.23,2.69,8.56,6.43-1.93,5.23-3.49,5.36a2.61,2.61,0,0,1-2.92-2.24c-.12-1.39.41-1.57.28-3-.23-2.61-2.51-2.92-3.76-2.81-1.5.13-4.24,1.89-3.86,6.28s4.63,7.92,10.19,7.44c6-.53,10.18-5.2,10.5-11.76a2.3,2.3,0,0,1,.21-1h0a2.5,2.5,0,0,1,.23-.39,4.92,4.92,0,0,1,.5-.64h0c.15-.17.34-.36.55-.56,2.62-2.47,12.06-8.31,21-6.46a.89.89,0,0,1,.71.81" /></symbol>

<symbol id="liquality" viewBox="0 0 64 64"><path d="M48,24c-2.56,0-5.53,1.64-7.86,3.34A13.76,13.76,0,0,1,32,30h0a13.76,13.76,0,0,1-8.14-2.66C21.53,25.64,18.56,24,16,24a8,8,0,0,0,0,16c2.56,0,5.53-1.64,7.86-3.34A13.76,13.76,0,0,1,32,34h0a13.76,13.76,0,0,1,8.14,2.66C42.47,38.36,45.44,40,48,40a8,8,0,0,0,0-16Z" /></symbol>

<symbol id="metamask" viewBox="0 0 64 64"><polygon points="54 26 56 28 52 32 56 44 54 54 42 50 36 54 28 54 22 50 10 54 8 44 12 32 8 28 10 26 8 16 10 8 24 16 40 16 54 8 56 16 54 26" fill-rule="evenodd"/><polyline points="40 16 38 24 36 40 28 40 26 24 24 16" /><line x1="28" y1="40" x2="22" y2="50" /><line x1="36" y1="40" x2="42" y2="50" /><line x1="32" y1="48" x2="32" y2="54" /><line x1="12" y1="32" x2="26" y2="24" /><line x1="38" y1="24" x2="52" y2="32" /><line x1="28" y1="40" x2="18" y2="36" /><line x1="36" y1="40" x2="46" y2="36" /></symbol>

<symbol id="mewwallet" viewBox="0 0 64 64"><path d="M27.54,20.86a12,12,0,0,1,15.19,16.5L32,32" /><path d="M21.27,26.64a12,12,0,0,0,15.19,16.5" /><circle cx="32" cy="32" r="24" /></symbol>

<symbol id="niftywallet" viewBox="0 0 64 64"><path d="M34.55,12.88,32,10.33a3.6,3.6,0,0,0-5.1,0L9.06,28.18a3.59,3.59,0,0,0,0,5.09h0a3.59,3.59,0,0,0,5.09,0l20.4-20.39a3.6,3.6,0,0,1,5.1,0l5.1,5.1" /><path d="M9.06,33.27l20.39,20.4a3.6,3.6,0,0,0,5.1,0l20.39-20.4a3.59,3.59,0,0,0,0-5.09l-5.09-5.1" /><path d="M36,21H50.46a0,0,0,0,1,0,0V35.39a0,0,0,0,1,0,0H36a7.21,7.21,0,0,1-7.21-7.21v0A7.21,7.21,0,0,1,36,21Z" transform="translate(-8.31 36.29) rotate(-45)" /></symbol>

<symbol id="opera" viewBox="0 0 64 64"><path d="M45.68,51.72A24.81,24.81,0,0,1,42,52c-12.15,0-22-9-22-20s9.85-20,22-20a24.81,24.81,0,0,1,3.68.28" /><circle cx="32" cy="32" r="24" /><path d="M32,14.19c7.12,3.31,12,10,12,17.81S39.12,46.5,32,49.81" /></symbol>

<symbol id="portis" viewBox="0 0 64 64"><polyline points="19.74 29.25 32 24 44.26 29.25" /><path d="M45.88,32.07a16,16,0,1,1-27.76,0L32,8Z" /><polyline points="17.7 32.85 32 40 46.3 32.85" /><path d="M24,53.86A16,16,0,0,0,32,40a16,16,0,0,0,8,13.86" /><line x1="32" y1="8" x2="32" y2="40" /></symbol>

<symbol id="safe" viewBox="0 0 64 64"><circle cx="32" cy="32" r="24" /><circle cx="32" cy="32" r="6" /><line x1="50" y1="32" x2="38" y2="32" /></symbol>

<symbol id="squarelink" viewBox="0 0 64 64"><path d="M8,8H48a8,8,0,0,1,8,8V48a8,8,0,0,1-8,8H16a8,8,0,0,1-8-8V8A0,0,0,0,1,8,8Z" /><path d="M24,8V36a4,4,0,0,1-4,4H8" /><path d="M40,56V28a4,4,0,0,1,4-4H56" /></symbol>

<symbol id="status" viewBox="0 0 64 64"><path d="M24.81,32.62c-3,.58-5.32,2.27-5.12,5.66s3.88,5.57,7.56,5.38c6-.33,10.39-5.32,10.89-11.15m-6-.06a27,27,0,0,0,4.67.2c4.82-.27,7.74-2.74,7.53-6.44s-4.09-6.08-8-5.86c-6.33.35-11,5.91-11.52,12.27a15.45,15.45,0,0,1,2.62-.37,27,27,0,0,1,4.67.2Z" /><circle cx="32" cy="32" r="24" /></symbol>

<symbol id="tokenary" viewBox="0 0 64 64"><circle cx="32" cy="32" r="24" /></symbol>

<symbol id="torus" viewBox="0 0 64 64"><polygon points="34.67 8 34.67 56 20.44 56 20.44 22.22 8 22.22 8 8 34.67 8" /><path d="M48.89,22.22a7.11,7.11,0,1,0-7.11-7.11A7.11,7.11,0,0,0,48.89,22.22Z" /></symbol>

<symbol id="trust" viewBox="0 0 64 64"><path d="M32,8c8.1,6.77,17.39,6.35,20.05,6.35C51.46,52.84,47,45.21,32,56c-15-10.79-19.45-3.16-20-41.65C14.59,14.35,23.88,14.77,32,8Z" /></symbol>

<symbol id="walletconnect" viewBox="0 0 64 64"><polyline points="44 34 38 40 32 34 26 40 20 34" /><path d="M23.51,27.51a12,12,0,0,1,17,0" /><circle cx="32" cy="32" r="24" /></symbol>



</svg>