<svg xmlns="http://www.w3.org/2000/svg">

<symbol id="arkane" viewBox="0 0 64 64" ><rect x="8" y="8" width="48" height="48" rx="4"/><path d="M48 48L35.66 20.22a4 4 0 00-7.32 0L16 48"/><path d="M36 32h-8"/></symbol>

<symbol id="authereum" viewBox="0 0 64 64" ><path d="M23.93 8L12 12v16c0 16 15.91 24 19.94 28C36 52 52 44 52 28V12L40 8"/><path d="M32 44l-6-4 6-12 6 12-6 4z"/><path d="M20 32L32 8l12 24"/></symbol>

<symbol id="bitski" viewBox="0 0 64 64" ><path d="M9.74 35.17L30.56 56"/><path d="M34 24.76a9.81 9.81 0 00-13.85-13.88L9.74 21.29 37.5 49.06l13.89-13.89A9.82 9.82 0 1037.5 21.29L23.62 35.17"/></symbol>

<symbol id="burnerwallet" viewBox="0 0 64 64" ><path d="M32.07 8c2 2.63 3.26 6.65 3.26 12.33a11.66 11.66 0 01-22.26 4.87A50.14 50.14 0 0012 36a20 20 0 0040 0c0-20-8.92-28-19.93-28z"/><path d="M48 48h-4a8 8 0 01-8-8h0a8 8 0 018-8h7.87"/></symbol>

<symbol id="cipher" viewBox="0 0 64 64" ><circle cx="32" cy="32" r="24"/><rect x="26.34" y="14.34" width="11.31" height="11.31" rx="2" transform="rotate(45 31.998 19.994)"/><rect x="26.34" y="38.34" width="11.31" height="11.31" rx="2" transform="rotate(45 32.002 44.006)"/><rect x="38.34" y="26.34" width="11.31" height="11.31" rx="2" transform="rotate(45 43.998 31.994)"/><rect x="14.34" y="26.34" width="11.31" height="11.31" rx="2" transform="rotate(45 20.003 32.005)"/></symbol>

<symbol id="coinbase" viewBox="0 0 64 64" ><circle cx="32" cy="32" r="24"/><path d="M40.49 40.49a12 12 0 110-17"/></symbol>

<symbol id="dapper" viewBox="0 0 64 64" ><path d="M31.67 8.33h.66A23.67 23.67 0 0156 32v13.15a10.52 10.52 0 01-10.52 10.52h-27A10.52 10.52 0 018 45.15V32A23.67 23.67 0 0131.67 8.33z"/><circle cx="22" cy="30" r="6"/><circle cx="42" cy="30" r="6"/><path d="M56 8l-4 4"/></symbol>

<symbol id="dcentwallet" viewBox="0 0 64 64" ><path d="M35.03 26.75v7l-6.06 3.5v-7l6.06-3.5z"/><path d="M52.78 44V20L32 8 11.21 20v24L32 56l20.78-12z"/><path d="M44.12 39V25L32 18l-12.12 7v14L32 46l12.12-7z"/></symbol>

<symbol id="fortmatic" viewBox="0 0 64 64" ><path d="M56 8H8v48h12V20h36V8z"/><path d="M32 32v12h12v12a12 12 0 0012-12V32z"/></symbol>

<symbol id="frame" viewBox="0 0 64 64" ><path d="M22.5 22.5h19v19h-19z"/><path d="M12 8h16l4 2h18a4 4 0 014 4v18l2 4v16a4 4 0 01-4 4H36l-4-2H14a4 4 0 01-4-4V32l-2-4V12a4 4 0 014-4z"/></symbol>

<symbol id="imtoken" viewBox="0 0 64 64" ><path d="M55.88 16.21c1.58 21.44-12.2 31.57-24.56 32.65-11.48 1-22.3-6-23.25-16.9-.78-9 4.76-12.77 9.11-13.15s8.23 2.69 8.56 6.43-1.93 5.23-3.49 5.36a2.61 2.61 0 01-2.92-2.24c-.12-1.39.41-1.57.28-3-.23-2.61-2.51-2.92-3.76-2.81-1.5.13-4.24 1.89-3.86 6.28s4.63 7.92 10.19 7.44c6-.53 10.18-5.2 10.5-11.76a2.3 2.3 0 01.21-1h0a2.5 2.5 0 01.23-.39 4.92 4.92 0 01.5-.64h0c.15-.17.34-.36.55-.56 2.62-2.47 12.06-8.31 21-6.46a.89.89 0 01.71.81"/></symbol>

<symbol id="liquality" viewBox="0 0 64 64" ><path d="M48 24c-2.56 0-5.53 1.64-7.86 3.34A13.76 13.76 0 0132 30h0a13.76 13.76 0 01-8.14-2.66C21.53 25.64 18.56 24 16 24a8 8 0 000 16c2.56 0 5.53-1.64 7.86-3.34A13.76 13.76 0 0132 34h0a13.76 13.76 0 018.14 2.66C42.47 38.36 45.44 40 48 40a8 8 0 000-16z"/></symbol>

<symbol id="metamask" viewBox="0 0 64 64" ><path d="M54 26l2 2-4 4 4 12-2 10-12-4-6 4h-8l-6-4-12 4-2-10 4-12-4-4 2-2-2-10 2-8 14 8h16l14-8 2 8-2 10z"/><path d="M40 16l-2 8-2 16h-8l-2-16-2-8"/><path d="M28 40l-6 10"/><path d="M36 40l6 10"/><path d="M32 48v6"/><path d="M12 32l14-8"/><path d="M38 24l14 8"/><path d="M28 40l-10-4"/><path d="M36 40l10-4"/></symbol>

<symbol id="mewwallet" viewBox="0 0 64 64" ><path d="M27.54 20.86a12 12 0 0115.19 16.5L32 32"/><path d="M21.27 26.64a12 12 0 0015.19 16.5"/><circle cx="32" cy="32" r="24"/></symbol>

<symbol id="niftywallet" viewBox="0 0 64 64" ><path d="M34.55 12.88L32 10.33a3.6 3.6 0 00-5.1 0L9.06 28.18a3.59 3.59 0 000 5.09h0a3.59 3.59 0 005.09 0l20.4-20.39a3.6 3.6 0 015.1 0l5.1 5.1"/><path d="M9.06 33.27l20.39 20.4a3.6 3.6 0 005.1 0l20.39-20.4a3.59 3.59 0 000-5.09l-5.09-5.1"/><path d="M31.995 25.683L42.22 15.46h0l10.175 10.175h0L42.17 35.859a7.21 7.21 0 01-10.196 0h0a7.21 7.21 0 01.021-10.176z"/></symbol>

<symbol id="opera" viewBox="0 0 64 64" ><path d="M45.68 51.72A24.81 24.81 0 0142 52c-12.15 0-22-9-22-20s9.85-20 22-20a24.81 24.81 0 013.68.28"/><circle cx="32" cy="32" r="24"/><path d="M32 14.19c7.12 3.31 12 10 12 17.81s-4.88 14.5-12 17.81"/></symbol>

<symbol id="portis" viewBox="0 0 64 64" ><path d="M19.74 29.25L32 24l12.26 5.25"/><path d="M45.88 32.07a16 16 0 11-27.76 0L32 8z"/><path d="M17.7 32.85L32 40l14.3-7.15"/><path d="M24 53.86A16 16 0 0032 40a16 16 0 008 13.86"/><path d="M32 8v32"/></symbol>

<symbol id="safe" viewBox="0 0 64 64" ><circle cx="32" cy="32" r="24"/><circle cx="32" cy="32" r="6"/><path d="M50 32H38"/></symbol>

<symbol id="squarelink" viewBox="0 0 64 64" ><path d="M8 8h40a8 8 0 018 8v32a8 8 0 01-8 8H16a8 8 0 01-8-8V8h0z"/><path d="M24 8v28a4 4 0 01-4 4H8"/><path d="M40 56V28a4 4 0 014-4h12"/></symbol>

<symbol id="status" viewBox="0 0 64 64" ><path d="M24.81 32.62c-3 .58-5.32 2.27-5.12 5.66s3.88 5.57 7.56 5.38c6-.33 10.39-5.32 10.89-11.15"/><path d="M32.14 32.45a27 27 0 004.67.2c4.82-.27 7.74-2.74 7.53-6.44s-4.09-6.08-8-5.86c-6.33.35-11 5.91-11.52 12.27a15.45 15.45 0 012.62-.37 27 27 0 014.67.2z"/><circle cx="32" cy="32" r="24"/></symbol>

<symbol id="tokenary" viewBox="0 0 64 64" ><circle cx="32" cy="32" r="24"/></symbol>

<symbol id="torus" viewBox="0 0 64 64" ><path d="M34.67 8v48H20.44V22.22H8V8h26.67z"/><path d="M48.89 22.22a7.11 7.11 0 10-7.11-7.11 7.11 7.11 0 007.11 7.11z"/></symbol>

<symbol id="trust" viewBox="0 0 64 64" ><path d="M32 8c8.1 6.77 17.39 6.35 20.05 6.35C51.46 52.84 47 45.21 32 56c-15-10.79-19.45-3.16-20-41.65 2.59 0 11.88.42 20-6.35z"/></symbol>

<symbol id="walletconnect" viewBox="0 0 64 64" ><path d="M44 34l-6 6-6-6-6 6-6-6"/><path d="M23.51 27.51a12 12 0 0117 0"/><circle cx="32" cy="32" r="24"/></symbol>



</svg>